<svg width="136" height="84" viewBox="0 0 136 84" fill="none" xmlns="http://www.w3.org/2000/svg">
<path d="M118.142 75.2248C109.399 56.6071 99.5239 42.9127 87.8877 33.3115C73.4668 21.4269 56.1783 16.0447 40.4002 18.6263C22.8981 21.4122 8.41195 34.9735 5.9631 50.8115L1.78255 50.1447C4.49391 32.5439 20.4387 17.5111 39.6865 14.4131C56.6258 11.6365 75.1827 17.3551 90.5344 30.0388C102.612 40.0346 112.902 54.2001 121.929 73.3849L118.113 75.1679L118.142 75.2248Z" fill="#00A32E"/>
<path d="M121.998 83.3436C121.341 83.2116 120.741 82.7443 120.444 82.0419L120.369 81.8026C116.208 71.5006 107.33 64.9222 100.644 61.2426C91.7823 56.3097 81.883 53.4938 72.3249 50.7568L73.4938 46.6669C82.8539 49.3234 93.4413 52.3183 102.691 57.5026C107.086 59.9465 112.326 63.509 116.866 68.4809C114.617 52.7699 118.609 36.1607 128.174 23.385L131.55 25.92C120.092 41.2121 117.24 62.5076 124.319 80.2197C124.309 80.2687 124.372 80.363 124.403 80.4101C124.837 81.497 124.285 82.7221 123.208 83.1584C122.825 83.3365 122.386 83.3401 122.013 83.2652L121.998 83.3436Z" fill="#00A32E"/>
</svg>
