<svg width="20" height="21" viewBox="0 0 20 21" fill="none" xmlns="http://www.w3.org/2000/svg">
<g clip-path="url(#clip0_1_685)">
<path d="M10 20.5C15.5228 20.5 20 16.0228 20 10.5C20 4.97715 15.5228 0.5 10 0.5C4.47715 0.5 0 4.97715 0 10.5C0 16.0228 4.47715 20.5 10 20.5Z" fill="#00A32E"/>
<path d="M7.44531 15.0115L12.5873 20.1534C16.8459 19.0178 20.0005 15.1377 20.0005 10.5004V10.2165L15.9627 6.49414L7.44531 15.0115Z" fill="#097500"/>
<path d="M10.2521 12.7402C10.6938 13.1818 10.6938 13.9389 10.2521 14.3806L9.33729 15.2954C8.89565 15.737 8.13855 15.737 7.69691 15.2954L3.69061 11.2575C3.24896 10.8159 3.24896 10.0588 3.69061 9.61715L4.60543 8.70232C5.04707 8.26068 5.80417 8.26068 6.24581 8.70232L10.2521 12.7402Z" fill="white"/>
<path d="M13.7537 5.76775C14.1954 5.32611 14.9525 5.32611 15.3941 5.76775L16.3089 6.68258C16.7506 7.12422 16.7506 7.88132 16.3089 8.32296L9.36886 15.2315C8.92722 15.6731 8.17012 15.6731 7.72848 15.2315L6.81365 14.3166C6.37201 13.875 6.37201 13.1179 6.81365 12.6763L13.7537 5.76775Z" fill="white"/>
</g>
<defs>
<clipPath id="clip0_1_685">
<rect width="20" height="20" fill="white" transform="translate(0 0.5)"/>
</clipPath>
</defs>
</svg>
