<svg width="100" height="100" viewBox="0 0 100 100" fill="none" xmlns="http://www.w3.org/2000/svg">
<rect width="100" height="100" rx="50" fill="#FFF0ED"/>
<rect x="0.173077" y="0.173077" width="99.6538" height="99.6538" rx="49.8269" stroke="#FB6239" stroke-opacity="0.5" stroke-width="0.346154"/>
<g clip-path="url(#clip0_1_519)">
<mask id="mask0_1_519" style="mask-type:luminance" maskUnits="userSpaceOnUse" x="25" y="25" width="50" height="50">
<path d="M75 25H25V75H75V25Z" fill="white"/>
<path d="M74.9999 50.0001C74.9999 63.8072 63.807 75 49.9999 75C36.1928 75 25 63.8072 25 50.0001C25 36.193 36.1928 25.0001 49.9999 25.0001C63.807 25.0001 74.9999 36.193 74.9999 50.0001Z" fill="white"/>
<path d="M41.0837 53.0744V55.3301H33.2535V53.5485L37.0178 50.0286C37.8223 49.2815 37.9373 48.8217 37.9373 48.4051C37.9373 47.7585 37.5062 47.3706 36.6442 47.3706C35.9115 47.3706 35.2506 47.7011 34.8482 48.3476L32.7363 47.1695C33.4978 45.9052 34.9201 45.0719 36.9028 45.0719C39.2159 45.0719 40.8107 46.2644 40.8107 48.1321C40.8107 49.1091 40.5378 49.9998 39.101 51.3216L37.2045 53.0744H41.0837Z" fill="black"/>
<path d="M51.6162 53.4049H50.122V55.3301H47.3491V53.4049H42.0332V51.5515L46.5445 45.273H49.4898L45.3951 51.1492H47.4353V49.4396H50.122V51.1492H51.6162V53.4049Z" fill="black"/>
<path d="M56.5167 43.2331H58.9447L54.2035 56.7671H51.7754L56.5167 43.2331Z" fill="black"/>
<path d="M67.2624 45.2727V47.0543L63.7138 55.3298H60.6104L64.0011 47.5284H61.3576V49.08H58.9294V45.2727H67.2624Z" fill="black"/>
</mask>
<g mask="url(#mask0_1_519)">
<mask id="mask1_1_519" style="mask-type:luminance" maskUnits="userSpaceOnUse" x="25" y="25" width="50" height="51">
<path d="M25.0001 25.0004H75V75.0002H25.0001V25.0004Z" fill="white"/>
</mask>
<g mask="url(#mask1_1_519)">
<path d="M75 50.0003C75 63.8074 63.8071 75.0002 50 75.0002C36.193 75.0002 25.0001 63.8074 25.0001 50.0003C25.0001 36.1932 36.193 25.0004 50 25.0004C63.8071 25.0004 75 36.1932 75 50.0003Z" fill="#FB6239"/>
<path d="M41.0838 53.0752V55.3308H33.2536V53.5493L37.0179 50.0294C37.8225 49.2822 37.9374 48.8224 37.9374 48.4058C37.9374 47.7593 37.5064 47.3714 36.6443 47.3714C35.9116 47.3714 35.2507 47.7018 34.8484 48.3483L32.7365 47.1702C33.4979 45.9059 34.9202 45.0726 36.9029 45.0726C39.216 45.0726 40.8108 46.2651 40.8108 48.1328C40.8108 49.1098 40.5379 50.0006 39.1011 51.3223L37.2046 53.0752H41.0838Z" fill="white"/>
<path d="M51.6162 53.4054H50.122V55.3306H47.3491V53.4054H42.0332V51.552L46.5445 45.2735H49.4898L45.3951 51.1497H47.4353V49.4401H50.122V51.1497H51.6162V53.4054Z" fill="white"/>
<path d="M56.5149 43.2334H58.9429L54.2017 56.7673H51.7736L56.5149 43.2334Z" fill="white"/>
<path d="M67.2628 45.2737V47.0552L63.7142 55.3308H60.6108L64.0015 47.5294H61.3579V49.081H58.9298V45.2737H67.2628Z" fill="white"/>
</g>
</g>
</g>
<defs>
<clipPath id="clip0_1_519">
<rect width="50" height="50" fill="white" transform="translate(25 25)"/>
</clipPath>
</defs>
</svg>
