<svg width="24" height="25" viewBox="0 0 24 25" fill="none" xmlns="http://www.w3.org/2000/svg">
<path d="M14.495 5.00503C14.2948 4.80483 13.9937 4.74494 13.7321 4.85328C13.4705 4.96163 13.3 5.21688 13.3 5.5V8.8H3.8C3.79353 8.8 3.78703 8.8 3.78051 8.8C3.65764 8.79997 3.52712 8.79994 3.4146 8.80914C3.28793 8.81949 3.12382 8.84488 2.95521 8.93079C2.72942 9.04584 2.54584 9.22942 2.43079 9.45521C2.34488 9.62382 2.31949 9.78793 2.30914 9.9146C2.29994 10.0271 2.29997 10.1576 2.3 10.2805C2.3 10.287 2.3 10.2935 2.3 10.3V14.7L2.3 14.7195C2.29997 14.8424 2.29994 14.9729 2.30914 15.0854C2.31949 15.2121 2.34488 15.3762 2.43079 15.5448C2.54584 15.7706 2.72942 15.9542 2.95521 16.0692C3.12382 16.1551 3.28793 16.1805 3.4146 16.1909C3.52712 16.2001 3.65764 16.2 3.78051 16.2L3.8 16.2H13.3V19.5C13.3 19.7831 13.4705 20.0384 13.7321 20.1467C13.9937 20.2551 14.2948 20.1952 14.495 19.995L21.495 12.995C21.7683 12.7216 21.7683 12.2784 21.495 12.005L14.495 5.00503Z" stroke="#2E2E2E" stroke-width="1.4" stroke-linecap="round" stroke-linejoin="round"/>
</svg>
