<svg width="100" height="100" viewBox="0 0 100 100" fill="none" xmlns="http://www.w3.org/2000/svg">
<rect width="100" height="100" rx="50" fill="#F7FBED"/>
<rect x="0.173077" y="0.173077" width="99.6538" height="99.6538" rx="49.8269" stroke="#A7CE4A" stroke-opacity="0.5" stroke-width="0.346154"/>
<path d="M70.3973 25H48.4304C45.8883 25 43.8279 27.0607 43.8279 29.6024V40.4228C44.9891 40.9999 46.2439 41.624 47.4149 42.2062L49.2067 38.6212C50.2917 36.4532 52.9363 35.5724 55.1035 36.6554C57.2752 37.7423 58.1553 40.3797 57.068 42.5519L53.874 48.9415C53.9596 49.7895 53.8819 50.6461 53.6451 51.4648H55.7539L50.1921 66.7588C49.862 67.6658 50.4999 68.7244 51.5691 68.7244C52.1669 68.7244 52.7293 68.3556 52.9451 67.7597L58.8709 51.4648H59.8974L65.8834 67.7647C66.1012 68.3574 66.662 68.7244 67.2594 68.7244C68.2584 68.7244 68.9908 67.7266 68.6334 66.7549L63.0182 51.4648H70.3974C72.939 51.4648 74.9998 49.4041 74.9998 46.8624V29.6025C74.9998 27.0607 72.939 25 70.3973 25ZM67.2587 45.1893H60.6863C59.8775 45.1893 59.2215 44.5332 59.2215 43.7244C59.2215 42.9149 59.8775 42.2596 60.6863 42.2596H67.2586C68.0681 42.2596 68.7234 42.9149 68.7234 43.7244C68.7234 44.5332 68.0682 45.1893 67.2587 45.1893ZM67.2587 39.6973H60.6863C59.8775 39.6973 59.2215 39.042 59.2215 38.2324C59.2215 37.4237 59.8775 36.7676 60.6863 36.7676H67.2586C68.0681 36.7676 68.7234 37.4237 68.7234 38.2324C68.7234 39.042 68.0682 39.6973 67.2587 39.6973ZM67.2587 34.2061H51.5691C50.7596 34.2061 50.1043 33.5498 50.1043 32.7412C50.1043 31.9326 50.7596 31.2764 51.5691 31.2764H67.2586C68.068 31.2764 68.7234 31.9324 68.7234 32.7412C68.7234 33.55 68.0681 34.2061 67.2587 34.2061Z" fill="#A7CE4A"/>
<path d="M50.7737 50.8365C51.0384 50.061 51.0365 49.2508 50.813 48.5115L54.4484 41.2414C54.8101 40.5178 54.5171 39.6378 53.7935 39.2761C53.0702 38.9141 52.1901 39.2074 51.8281 39.9312L48.7275 46.1315C46.8743 45.2087 44.0587 43.8088 41.7905 42.6808C39.6802 41.6313 38.1741 40.6902 35.6046 40.6902H34.3102C36.311 40.6902 38.0967 39.7693 39.2655 38.3281C40.1574 37.2314 40.6907 35.8337 40.6907 34.3105C40.6907 30.7861 37.8343 27.9297 34.3095 27.9297C30.7862 27.9297 27.9298 30.7861 27.9298 34.3105C27.9298 36.0031 28.589 37.5412 29.6644 38.6826C30.827 39.9189 32.4784 40.6902 34.3091 40.6906C31.8547 40.6906 29.4553 41.6851 27.7291 43.4158C25.9693 45.171 25.0001 47.5094 25.0001 50.0004V54.7074C25.0001 56.7338 26.3158 58.4579 28.1381 59.0714V67.2592C28.1381 68.0684 28.7938 68.724 29.6029 68.724H39.0168C39.8259 68.724 40.4816 68.0684 40.4816 67.2592V50.8008C41.8706 51.4951 43.6952 52.4072 45.1715 53.1457C46.2063 53.663 47.4156 53.7095 48.494 53.2708C49.5694 52.8283 50.3983 51.9476 50.768 50.8538L50.7737 50.8365Z" fill="#A7CE4A"/>
</svg>
