<svg width="74" height="90" viewBox="0 0 74 90" fill="none" xmlns="http://www.w3.org/2000/svg">
<path fill-rule="evenodd" clip-rule="evenodd" d="M64.8778 13.771C63.9045 13.3226 63.4713 13.2843 62.0116 13.5604C58.858 14.1803 54.6693 21.3743 48.9796 36.0228C47.2042 40.5796 44.9305 46.2537 43.9139 48.6177C42.6312 51.5717 41.6777 54.2553 40.7565 57.3468C39.4943 61.7464 39.4087 62.746 40.172 63.0846C40.3747 63.1795 40.5133 63.7112 40.5035 64.2411C40.4439 65.5598 40.8827 66.0836 42.693 66.9086C43.8985 67.4746 44.376 67.5282 45.072 67.273C46.5832 66.7047 50.191 62.0132 54.1898 55.5471C56.1612 52.3231 58.6247 48.5376 59.6571 47.0595C62.4378 43.0738 66.8245 36.06 67.5242 34.504C68.9799 31.337 69.6522 26.0263 69.0041 21.7716C68.3197 17.4424 67.0527 14.7966 64.8889 13.7749L64.8778 13.771ZM66.3917 21.0784C67.0652 23.4321 67.0312 25.7518 66.3985 28.5835C65.8726 30.8197 65.7316 31.1553 63.7823 34.387C62.6379 36.2604 60.1174 40.175 58.1268 43.132C56.1625 46.0485 53.1254 50.7392 51.4333 53.5143C49.7604 56.234 47.426 59.7542 46.2633 61.2864C44.3667 63.7924 44.1044 64.0488 43.4693 63.8414C43.0779 63.7183 42.7191 63.3213 42.576 62.8749C42.3647 62.2313 42.5533 61.6146 44.7462 56.2101C46.0621 52.9452 47.7265 49.0319 48.4331 47.5279C49.1328 45.9719 51.0956 41.2319 52.7936 36.9706C56.2133 28.3076 57.3042 25.9444 59.86 21.8561C61.8455 18.6989 62.5832 18.0365 63.9271 18.1668C65.138 18.251 65.7628 19.0253 66.3622 21.0558L66.3917 21.0784Z" fill="#FFCD3C"/>
<path fill-rule="evenodd" clip-rule="evenodd" d="M18.3763 28.5198C14.7993 30.5062 12.7266 34.1665 11.8755 39.8865C11.4259 42.9056 11.8618 46.5907 13.2243 52.8661C13.5763 54.5008 13.9291 56.3839 14.0148 56.9964C14.2943 58.8045 15.4218 60.3481 16.8206 60.857C18.3153 61.4115 19.4619 61.2875 20.3985 60.4087C21.0497 59.8528 21.1763 59.4872 21.6276 57.2872C22.1079 54.8244 22.8975 47.9919 23.1345 43.7955C23.2265 42.5624 23.5696 39.7793 23.9281 37.5967C24.9794 30.9043 24.8166 29.2606 23.0727 28.1362C21.8843 27.3777 20.2257 27.5477 18.3874 28.5237L18.3763 28.5198ZM20.873 31.8766C20.9974 32.3412 20.7731 34.781 20.3273 37.4665C19.9045 40.0857 19.308 45.5714 18.9305 49.744C18.2929 57.2121 18.2532 57.434 17.6075 57.5081C16.8502 57.6181 16.7633 57.4392 16.8412 55.8168C16.8935 55.128 16.5879 51.7111 16.129 48.4148C15.6666 45.0924 15.2819 41.797 15.2963 40.8595C15.3234 38.8103 16.2925 34.4333 16.9744 33.1439C18.0621 31.0401 20.4291 30.1852 20.8802 31.8915L20.873 31.8766Z" fill="#FFCD3C"/>
<path fill-rule="evenodd" clip-rule="evenodd" d="M34.0446 70.0416C32.3787 70.5192 31.0253 72.2085 29.7651 75.4555C28.7 78.1748 28.6876 78.2822 29.0413 79.7687C29.5431 81.9018 30.7146 83.1752 33.0675 84.188C35.4648 85.2161 36.7341 85.0601 38.6477 83.6514C40.4605 82.3193 41.7496 80.4218 42.4434 78.0948C42.9284 76.5141 42.9221 76.1026 42.5114 75.0676C42.1191 74.0513 41.7935 73.666 40.5229 72.9658C39.6761 72.4743 38.7569 71.8336 38.5235 71.5048C37.8155 70.5405 35.2606 69.6812 34.0446 70.0416ZM38.3423 75.6834C39.1069 76.5556 39.1784 76.7788 38.8876 77.5834C38.4472 78.82 36.7142 80.6385 35.9504 80.6594C35.0606 80.6863 33.2942 79.5912 32.9002 78.7232C32.5892 78.0451 32.6258 77.7602 33.3745 76.1343C33.8196 75.135 34.3865 74.1779 34.6106 74.0322C35.2678 73.6024 37.2663 74.4925 38.3312 75.6795L38.3423 75.6834Z" fill="#FFCD3C"/>
<path fill-rule="evenodd" clip-rule="evenodd" d="M14.6017 68.2356C12.047 69.3108 10.8853 72.7036 12.2552 75.0875C13.6882 77.4684 16.0671 77.8328 18.2388 75.8934C20.4183 73.9318 20.8385 71.2126 19.2206 69.4374C18.2912 68.3964 15.7411 67.7742 14.6017 68.2356ZM16.3263 72.3543C16.4179 72.7705 16.3114 73.0064 15.9906 73.1807C15.4161 73.5151 14.8839 72.4009 15.358 71.7837C15.7268 71.2913 16.169 71.5186 16.3263 72.3543Z" fill="#FFCD3C"/>
</svg>
