<svg width="130" height="155" viewBox="0 0 130 155" fill="none" xmlns="http://www.w3.org/2000/svg">
<path d="M69.0195 128.108C58.9231 120.881 69.9929 118.894 63.277 112.988C57.1486 108.416 48.2328 108.906 42.543 103.645C28.0149 93.0841 23.9801 67.8161 35.3107 51.5347C64.4 16.754 119.027 61.5886 92.4623 95.6402C84.4491 108.408 96.1263 106.906 97.5818 116.865C98.3426 123.225 98.7457 129.973 96.8647 136.039C89.8324 147.986 74.4608 136.531 69.3059 128.416C69.2273 128.279 69.1097 128.202 69.0038 128.081L69.0195 128.108ZM86.3743 109.224C87.628 107.301 86.0552 102.936 87.1263 99.3733C89.0776 93.3027 93.912 88.2592 94.7963 82.0408C103.265 47.377 46.5873 22.3046 33.1749 62.0748C27.3074 80.7669 37.3412 102.065 54.4711 106.107C58.8073 107.132 63.43 108.464 66.7917 111.833C68.2385 113.143 69.7787 114.363 70.8971 114.663C77.8018 116.17 58.7649 91.3039 57.1491 88.8184C54.6405 85.7938 50.1784 85.4959 48.7797 81.6854C47.4146 77.4919 52.1033 74.0232 54.9728 77.4214C57.3084 80.146 57.8792 84.0342 59.7437 87.1397C63.8703 94.1029 68.9484 100.699 73.1621 107.939C76.1388 113.602 81.8725 114.403 79.5935 106.483C77.0238 99.1301 75.3072 91.1765 72.5812 83.8051C70.9926 79.4133 66.0247 75.8442 66.6174 70.8847C66.9289 68.778 68.6999 67.2472 70.6618 67.4968C72.4632 67.6573 74.2311 69.146 74.9383 71.0649C76.3779 75.3245 74.3615 79.8329 75.7235 84.21C77.4894 90.8627 79.6835 98.0683 81.5826 104.826C82.1062 106.742 83.9256 111.218 86.09 109.424C86.1561 109.35 86.2065 109.248 86.2725 109.174L86.3743 109.224ZM66.4363 122.182C67.4614 124.463 71.0485 123.811 73.0818 123.365C79.6757 121.56 86.3631 119.665 92.7881 116.685C93.7156 116.15 94.7553 115.369 94.3828 114.093C94.1068 112.543 92.5582 112.128 91.1922 112.407C83.996 114.05 76.8785 116.775 70.0338 119.343C68.8724 119.976 67.1371 120.687 66.4268 121.787C66.4195 121.901 66.4121 122.014 66.3775 122.143L66.4363 122.182ZM72.4933 127.449C71.6582 130.476 75.0586 131.896 77.5525 131.366C81.8845 130.43 95.8908 127.293 95.4259 121.635C95.1541 120.156 93.7345 119.775 92.4944 120.273C86.1701 123.049 79.0904 124.516 72.7105 127.07C72.6328 127.187 72.5552 127.305 72.4503 127.438L72.4933 127.449ZM78.9553 134.301C80.7568 137.298 86.0363 138.76 89.4125 138.121C93.2818 137.707 96.169 133.132 94.5091 129.436C93.8135 128.419 92.1317 129.79 90.8444 130.205C87.2815 131.97 82.7816 132.93 79.1536 134.078C79.0875 134.152 79.0372 134.254 78.9711 134.329L78.9553 134.301ZM72.1739 76.9865C74.0204 74.8304 73.5754 69.2699 69.8225 69.5081C66.5901 70.9005 69.6538 75.8955 71.9242 77.0579C72.0061 77.0107 72.1194 77.018 72.1897 77.0138L72.1739 76.9865ZM54.3035 78.971C53.4452 77.3574 52.0288 76.793 51.0164 77.5589C50.1519 78.2031 49.62 79.928 49.9138 81.0674C50.3545 82.7765 51.8811 83.5318 53.8084 82.9652C54.9048 82.6599 55.1702 81.6705 54.698 79.9069C54.591 79.5323 54.4137 79.162 54.315 78.928L54.3035 78.971Z" fill="#D6D6D6"/>
<path d="M25.3903 46.1726C25.1491 50.1658 15.4777 42.7296 13.5461 42.2806C12.7708 41.819 11.5055 40.9492 11.8401 39.7018C13.5334 37.3432 17.1112 41.0236 19.2158 41.7726C21.268 43.0609 23.6308 43.8792 25.2403 45.7866C25.3032 45.8957 25.3389 46.0205 25.3903 46.1726Z" fill="#D6D6D6"/>
<path d="M37.8705 31.8825C34.6714 28.1654 31.4388 22.9406 29.7831 18.3695C30.7629 15.4045 32.8981 19.7354 33.748 21.2084C35.433 24.381 37.3542 27.9629 38.4034 31.3569C38.3415 31.5017 38.2062 31.8343 38.1443 31.979C38.0583 31.956 37.9722 31.9329 37.8862 31.9098L37.8705 31.8825Z" fill="#D6D6D6"/>
<path d="M27.6164 38.8159C24.4898 36.5477 21.0421 33.1559 19.0203 29.7776C19.2604 24.5852 26.6647 35.402 27.5922 36.7575C27.8209 37.2799 28.4473 38.5547 27.843 38.8306C27.7727 38.8348 27.7024 38.839 27.6437 38.8002L27.6164 38.8159Z" fill="#D6D6D6"/>
</svg>
