<svg width="50" height="50" viewBox="0 0 50 50" fill="none" xmlns="http://www.w3.org/2000/svg">
<g id="Frame">
<g id="Group">
<path id="Vector" d="M42.2771 30.5293L40.285 28.3805C41.6362 27.1278 42.3804 25.4243 42.3804 23.5838C42.3804 21.7433 41.6363 20.0398 40.285 18.7871L42.2771 16.6384C44.2049 18.4256 45.3105 20.9571 45.3105 23.5838C45.3105 26.2106 44.2049 28.7421 42.2771 30.5293ZM4.68945 44.7156C4.68945 47.6294 7.06001 50 9.97382 50H29.0449C31.9587 50 34.3292 47.6294 34.3292 44.7156V41.2252H4.68945V44.7156ZM17.563 43.5696H21.47V46.4997H17.563V43.5696ZM4.68945 38.2951H34.3292V8.79074H4.68945V38.2951ZM18.4632 16.6861V15.0149H20.909V16.6994C21.9409 17.0085 22.7497 17.7286 23.3169 18.8449L23.5161 19.2369L21.4064 20.6036L21.1517 20.1498C20.6194 19.2015 20.1743 19.0218 19.5392 19.0218C18.9579 19.0218 18.4849 19.5278 18.4849 20.1495C18.4849 20.5677 18.5758 20.8814 19.038 21.2429L19.0624 21.2596C19.3306 21.444 19.5428 21.59 19.7136 21.6835L20.7006 22.1954C21.4288 22.5595 21.8108 22.7578 22.4602 23.2496C23.5018 24.0253 23.9723 24.938 24.0306 26.2994L24.0311 26.3203C24.0311 27.4768 23.6539 28.4718 22.9099 29.2777C22.3584 29.8826 21.6864 30.2877 20.9091 30.4844V32.1529H18.4632V30.4981C16.7311 30.0483 15.4436 28.6593 15.0575 26.7863L14.9878 26.4484L17.2262 25.0937L17.4012 25.7094C17.8958 27.4496 18.5365 28.1276 19.6863 28.1276C20.2937 28.1276 20.7291 27.9499 21.0559 27.5684C21.3098 27.2561 21.4384 26.8487 21.4384 26.3571C21.4384 25.5833 20.8969 25.0644 19.2926 24.3003C18.2267 23.8159 17.6931 23.4895 17.0168 22.9072C16.2477 22.2235 15.8921 21.3898 15.8921 20.2783C15.892 18.5931 16.9306 17.1695 18.4632 16.6861ZM34.3292 5.28437C34.3292 2.37056 31.9587 0 29.0449 0H9.97382C7.06001 0 4.68945 2.37056 4.68945 5.28437V5.86062H34.3292V5.28437Z" fill="#C54AFF"/>
<path id="Vector_2" d="M38.5733 19.5605L36.9258 21.9837C37.4573 22.345 37.7745 22.9434 37.7745 23.5843C37.7745 24.2252 37.4572 24.8235 36.9258 25.1849L38.5733 27.608C39.908 26.7006 40.7047 25.1964 40.7047 23.5843C40.7047 21.9721 39.9079 20.4679 38.5733 19.5605Z" fill="#C447FE"/>
</g>
</g>
</svg>
