<svg width="24" height="25" viewBox="0 0 24 25" fill="none" xmlns="http://www.w3.org/2000/svg">
<g id="Frame">
<path id="Vector" d="M16.5 6.5V7.25M16.5 10.25V11M16.5 14V14.75M16.5 17.75V18.5M7.5 13.25H12.75M7.5 15.5H10.5M3.375 5.75C2.754 5.75 2.25 6.254 2.25 6.875V9.901C2.70675 10.164 3.08612 10.5427 3.34992 10.9989C3.61371 11.4552 3.7526 11.973 3.7526 12.5C3.7526 13.027 3.61371 13.5448 3.34992 14.0011C3.08612 14.4573 2.70675 14.836 2.25 15.099V18.125C2.25 18.746 2.754 19.25 3.375 19.25H20.625C21.246 19.25 21.75 18.746 21.75 18.125V15.099C21.2933 14.836 20.9139 14.4573 20.6501 14.0011C20.3863 13.5448 20.2474 13.027 20.2474 12.5C20.2474 11.973 20.3863 11.4552 20.6501 10.9989C20.9139 10.5427 21.2933 10.164 21.75 9.901V6.875C21.75 6.254 21.246 5.75 20.625 5.75H3.375Z" stroke="#D6D6D6" stroke-width="1.5" stroke-linecap="round" stroke-linejoin="round"/>
</g>
</svg>
