<svg width="50" height="50" viewBox="0 0 50 50" fill="none" xmlns="http://www.w3.org/2000/svg">
<g id="Frame" clip-path="url(#clip0_1_581)">
<g id="Group">
<path id="Vector" d="M24.9023 50C28.1311 50 31.2738 49.3906 34.2407 48.189L33.1421 45.4738C30.5242 46.5324 27.752 47.0703 24.9023 47.0703C12.7859 47.0703 2.92969 37.2141 2.92969 25.0977C2.92969 20.5819 4.32764 16.3263 6.86963 12.6547C8.57959 13.2576 10.2948 12.7743 11.4369 11.6322C13.1588 9.91035 13.1504 7.13018 11.4369 5.4167C9.77324 3.75586 6.87783 3.76162 5.22275 5.4167C3.85625 6.7832 3.48242 8.94385 4.56338 10.7604C1.58594 14.9689 0 19.8952 0 25.0977C0 38.8291 11.1709 50 24.9023 50ZM25.0977 0C21.8689 0 18.7262 0.609375 15.7593 1.81104L16.8579 4.52617C19.4758 3.46758 22.248 2.92969 25.0977 2.92969C37.2141 2.92969 47.0703 12.7859 47.0703 24.9023C47.0703 29.4361 45.6631 33.7084 43.1012 37.3898C41.5559 36.8825 39.7489 37.1818 38.5631 38.3678C36.8424 40.0885 36.848 42.8699 38.5631 44.5819C40.2832 46.3021 43.0637 46.2969 44.7772 44.5834C46.1464 43.2143 46.5158 41.0523 45.4369 39.2395C48.4143 35.0311 50 30.1046 50 24.9023C50 11.1709 38.8291 0 25.0977 0Z" fill="#316AFF"/>
<path id="Vector_2" d="M29.2831 23.6328C29.2418 21.9834 29.1476 20.424 28.987 19.0035C27.6562 19.1478 26.3125 19.2383 25 19.2383C23.6187 19.2383 22.2935 19.1473 21.0124 19.0092C20.8467 20.4767 20.7557 22.0385 20.7152 23.6328H29.2831ZM17.7855 23.6328C17.8271 21.8806 17.9254 20.1742 18.1096 18.5749C15.4635 18.039 13.2396 17.1895 11.6322 16.1114C10.1573 18.298 9.21182 20.8666 8.96094 23.6328H17.7855ZM17.7646 26.5625H8.96094C9.21182 29.3287 10.1574 31.8971 11.6322 34.0838C13.2396 33.0058 15.4637 32.1562 18.1098 31.6203C17.917 29.9569 17.8056 28.2462 17.7646 26.5625ZM25 33.8867C23.7381 33.8867 22.5626 33.9689 21.439 34.0877C22.2719 38.5319 23.6627 41.2109 25 41.2109C26.9409 41.2109 28.1768 36.1489 28.561 34.0843C27.4453 33.9679 26.2729 33.8867 25 33.8867ZM20.7169 26.5625C20.7582 28.2098 20.8522 29.7669 21.0127 31.1859C22.2937 31.0479 23.6187 30.957 25 30.957C26.3762 30.957 27.7038 31.0466 28.9876 31.1864C29.1535 29.7186 29.2442 28.1569 29.2846 26.5625H20.7169ZM25 16.3086C26.2557 16.3086 27.431 16.2228 28.5604 16.1021C27.7272 11.6608 26.3368 8.98438 25 8.98438C23.0592 8.98438 21.8234 14.0451 21.4395 16.1076C22.563 16.2262 23.7383 16.3086 25 16.3086ZM18.5472 34.5199C16.3762 34.9748 14.6649 35.6349 13.4937 36.3567C15.3846 38.2887 17.7542 39.7449 20.4108 40.5361C19.5825 38.8967 18.9736 36.8106 18.5472 34.5199ZM31.4573 34.5139C31.068 36.6244 30.583 38.6054 29.6026 40.5327C32.2545 39.7404 34.6194 38.2849 36.5072 36.3557C35.3535 35.6432 33.658 34.9742 31.4573 34.5139ZM41.0391 26.5625H32.2145C32.173 28.3142 32.0746 30.0202 31.8906 31.6191C34.532 32.1558 36.7622 33.0072 38.3699 34.0802C39.8434 31.894 40.7884 29.3271 41.0391 26.5625ZM18.5438 15.6747C18.9356 13.551 19.4229 11.5784 20.3974 9.6626C17.7461 10.4548 15.3812 11.91 13.4937 13.8386C14.6644 14.5602 16.3742 15.2198 18.5438 15.6747ZM31.8894 18.5665C32.0828 20.2323 32.1944 21.9463 32.2354 23.6328H41.0391C40.7896 20.8825 39.8518 18.329 38.3914 16.1504C36.7153 17.274 34.4085 18.0624 31.8894 18.5665ZM31.4496 15.6579C33.5939 15.2065 35.3431 14.5657 36.5168 13.8503C34.6242 11.9129 32.251 10.4521 29.5892 9.65928C30.4155 11.2943 31.0233 13.3737 31.4496 15.6579Z" fill="#316AFF"/>
</g>
</g>
<defs>
<clipPath id="clip0_1_581">
<rect width="50" height="50" fill="white"/>
</clipPath>
</defs>
</svg>
