<svg width="20" height="21" viewBox="0 0 20 21" fill="none" xmlns="http://www.w3.org/2000/svg">
<g clip-path="url(#clip0_1_701)">
<path d="M10 20.5C15.5228 20.5 20 16.0228 20 10.5C20 4.97715 15.5228 0.5 10 0.5C4.47715 0.5 0 4.97715 0 10.5C0 16.0228 4.47715 20.5 10 20.5Z" fill="#F15249"/>
<path d="M5.80469 15.011L11.199 20.4053C15.7416 19.8691 19.3378 16.3044 19.9056 11.7618L14.4798 6.33594L5.80469 15.011Z" fill="#AD0E0E"/>
<path d="M14.7325 12.7081C15.1741 13.1498 15.1741 13.9069 14.7325 14.3485L13.8492 15.2318C13.4075 15.6734 12.6504 15.6734 12.2088 15.2318L5.26873 8.29171C4.82709 7.85007 4.82709 7.09297 5.26873 6.65133L6.18356 5.7365C6.6252 5.29486 7.38229 5.29486 7.82393 5.7365L14.7325 12.7081Z" fill="white"/>
<path d="M11.0725 9.01733L8.51733 11.5725L12.2082 15.2318C12.6498 15.6735 13.4069 15.6735 13.8486 15.2318L14.7634 14.317C15.205 13.8754 15.205 13.1183 14.7634 12.6766L11.0725 9.01733Z" fill="#D6D6D6"/>
<path d="M12.2088 5.76775C12.6504 5.32611 13.4075 5.32611 13.8492 5.76775L14.764 6.68258C15.2056 7.12422 15.2056 7.88132 14.764 8.32296L7.79239 15.2315C7.35075 15.6731 6.59365 15.6731 6.15201 15.2315L5.26873 14.3482C4.82709 13.9066 4.82709 13.1495 5.26873 12.7078L12.2088 5.76775Z" fill="white"/>
</g>
<defs>
<clipPath id="clip0_1_701">
<rect width="20" height="20" fill="white" transform="translate(0 0.5)"/>
</clipPath>
</defs>
</svg>
