<svg width="32" height="32" viewBox="0 0 32 32" fill="none" xmlns="http://www.w3.org/2000/svg">
<g id="Frame">
<g id="Group">
<path id="Vector" d="M7.93817 5.32653C5.22617 5.32653 3.1035 6.01186 2.72883 8.61853C2.60883 9.4532 2.87283 10.2745 3.4795 10.8679C3.78083 11.1612 4.0995 11.5132 4.52083 11.8679C5.57817 12.7599 6.92617 13.7612 8.1875 14.6599C11.6582 17.1265 14.3982 18.6599 16.0208 18.6599C17.6435 18.6599 20.3835 17.1265 23.8542 14.6599C25.1168 13.7625 26.4648 12.7585 27.5208 11.8679C27.9422 11.5132 28.2608 11.1639 28.5622 10.8679C28.8572 10.5797 29.0792 10.2253 29.2098 9.83407C29.3404 9.44286 29.3757 9.02614 29.3128 8.61853C28.9395 6.01186 26.8155 5.3252 24.1035 5.3252L7.93817 5.32653ZM2.6875 13.5345V21.3265C2.6875 22.741 3.2494 24.0976 4.2496 25.0978C5.24979 26.098 6.60635 26.6599 8.02083 26.6599H24.0208C25.4353 26.6599 26.7919 26.098 27.7921 25.0978C28.7923 24.0976 29.3542 22.741 29.3542 21.3265V13.5345C28.0931 14.7455 26.7426 15.8597 25.3142 16.8679C21.5315 19.5452 18.1355 21.3265 16.0208 21.3265C13.9062 21.3265 10.5102 19.5452 6.72883 16.8679C5.30015 15.8601 3.94965 14.7458 2.68883 13.5345H2.6875Z" fill="#00A32E"/>
</g>
</g>
</svg>
