<svg width="40" height="40" viewBox="0 0 40 40" fill="none" xmlns="http://www.w3.org/2000/svg">
<g clip-path="url(#clip0_2430_55263)">
<path d="M34.5455 0H5.45455C2.44208 0 0 2.44208 0 5.45455V34.5455C0 37.5579 2.44208 40 5.45455 40H34.5455C37.5579 40 40 37.5579 40 34.5455V5.45455C40 2.44208 37.5579 0 34.5455 0Z" fill="#0077B5"/>
<path d="M14.409 10.9091C14.409 11.5833 14.2091 12.2425 13.8345 12.8031C13.4599 13.3637 12.9274 13.8007 12.3045 14.0587C11.6816 14.3167 10.9961 14.3842 10.3348 14.2527C9.67353 14.1211 9.06609 13.7965 8.58932 13.3197C8.11255 12.8429 7.78787 12.2355 7.65633 11.5742C7.52479 10.9129 7.5923 10.2274 7.85032 9.60449C8.10835 8.98156 8.5453 8.44913 9.10592 8.07454C9.66655 7.69994 10.3257 7.5 10.9999 7.5C11.9041 7.5 12.7712 7.85917 13.4105 8.4985C14.0498 9.13783 14.409 10.0049 14.409 10.9091ZM13.6363 16.5909V31.6523C13.6369 31.7634 13.6155 31.8735 13.5734 31.9763C13.5313 32.0792 13.4693 32.1727 13.3909 32.2514C13.3126 32.3302 13.2194 32.3927 13.1168 32.4354C13.0142 32.478 12.9042 32.5 12.7931 32.5H9.19991C9.0888 32.5003 8.97873 32.4786 8.87602 32.4363C8.77331 32.3939 8.67998 32.3316 8.60142 32.253C8.52285 32.1745 8.46059 32.0812 8.4182 31.9784C8.37582 31.8757 8.35416 31.7657 8.35446 31.6545V16.5909C8.35446 16.3667 8.44353 16.1516 8.60209 15.9931C8.76064 15.8345 8.97568 15.7455 9.19991 15.7455H12.7931C13.0169 15.7461 13.2314 15.8354 13.3895 15.9939C13.5475 16.1524 13.6363 16.3671 13.6363 16.5909ZM32.4181 24.4318V31.7227C32.4184 31.8249 32.3985 31.9261 32.3595 32.0205C32.3206 32.115 32.2633 32.2008 32.1911 32.273C32.1189 32.3452 32.0331 32.4025 31.9386 32.4414C31.8442 32.4804 31.743 32.5003 31.6408 32.5H27.7772C27.675 32.5003 27.5738 32.4804 27.4794 32.4414C27.3849 32.4025 27.2991 32.3452 27.2269 32.273C27.1547 32.2008 27.0974 32.115 27.0585 32.0205C27.0195 31.9261 26.9996 31.8249 26.9999 31.7227V24.6568C26.9999 23.6023 27.309 20.0386 24.2431 20.0386C21.8681 20.0386 21.384 22.4773 21.2885 23.5727V31.7227C21.2886 31.9269 21.2082 32.1229 21.0649 32.2684C20.9216 32.4138 20.7268 32.497 20.5226 32.5H16.7908C16.6889 32.5 16.5879 32.4799 16.4937 32.4408C16.3995 32.4017 16.314 32.3444 16.242 32.2722C16.17 32.2 16.113 32.1143 16.0742 32.02C16.0353 31.9257 16.0155 31.8247 16.0158 31.7227V16.525C16.0155 16.423 16.0353 16.322 16.0742 16.2277C16.113 16.1334 16.17 16.0477 16.242 15.9755C16.314 15.9033 16.3995 15.846 16.4937 15.8069C16.5879 15.7678 16.6889 15.7477 16.7908 15.7477H20.5226C20.7288 15.7477 20.9265 15.8296 21.0723 15.9754C21.218 16.1212 21.2999 16.3189 21.2999 16.525V17.8386C22.1817 16.5159 23.4886 15.4955 26.2772 15.4955C32.4545 15.4955 32.4181 21.2636 32.4181 24.4318Z" fill="white"/>
</g>
<defs>
<clipPath id="clip0_2430_55263">
<rect width="40" height="40" fill="white"/>
</clipPath>
</defs>
</svg>
