<svg width="32" height="32" viewBox="0 0 32 32" fill="none" xmlns="http://www.w3.org/2000/svg">
<g id="Frame">
<g id="Group">
<path id="Vector" fill-rule="evenodd" clip-rule="evenodd" d="M16.6667 0.737305C23.1059 0.737305 28.3333 5.96477 28.3333 12.404C28.3333 14.2945 27.3496 16.8134 25.9098 19.392C23.8788 23.0339 20.9794 26.8348 19.1644 29.0873C18.8696 29.4683 18.4916 29.7769 18.0593 29.9893C17.6269 30.2018 17.1517 30.3125 16.67 30.313C16.1882 30.3135 15.7128 30.2038 15.28 29.9923C14.8472 29.7807 14.4685 29.473 14.1729 29.0926C12.354 26.8362 9.45455 23.0339 7.42349 19.392C5.98372 16.8134 5 14.2945 5 12.404C5 5.96477 10.2275 0.737305 16.6667 0.737305ZM16.6667 4.97972C13.1547 4.97972 10.303 7.83143 10.303 11.3434C10.303 14.8553 13.1547 17.707 16.6667 17.707C20.1786 17.707 23.0303 14.8553 23.0303 11.3434C23.0303 7.83143 20.1786 4.97972 16.6667 4.97972ZM16.6667 7.10094C19.008 7.10094 20.9091 9.00207 20.9091 11.3434C20.9091 13.6846 19.008 15.5858 16.6667 15.5858C14.3254 15.5858 12.4242 13.6846 12.4242 11.3434C12.4242 9.00207 14.3254 7.10094 16.6667 7.10094Z" fill="#00A32E"/>
</g>
</g>
</svg>
