<svg width="85" height="40" viewBox="0 0 85 40" fill="none" xmlns="http://www.w3.org/2000/svg">
<g id="Frame 1261157272">
<g id="Group">
<path id="Vector" d="M17.4766 18.7784C17.0895 16.8449 15.9759 14.9552 14.1377 13.2715C13.3616 12.5602 12.4559 11.8852 11.4205 11.2597C7.93285 13.3687 5.91351 16.0306 5.36435 18.7784C4.60924 15.0009 6.62858 11.0595 11.4205 8.16113C12.4559 8.78657 13.3616 9.46159 14.1377 10.1728C16.956 12.7547 18.0677 15.8171 17.4766 18.7784Z" fill="#006838"/>
<path id="Vector_2" d="M4.79419 20.4663C3.59098 21.8335 2.78248 23.9348 2.48692 26.6883C2.36107 27.8496 2.32675 29.1272 2.39348 30.5153C5.6618 33.0838 8.5926 33.8485 10.8522 33.0457C8.50298 35.7191 4.64546 35.5932 0.156768 32.0637C0.0919355 30.6755 0.126258 29.3979 0.250203 28.2367C0.705936 24.0187 2.35916 21.332 4.79419 20.4663Z" fill="#006838"/>
<path id="Vector_3" d="M12.3547 32.7918C13.9431 33.3562 15.8652 33.1465 18.0028 32.0767C18.9047 31.6267 19.8448 31.0222 20.8135 30.2614C21.0346 25.584 20.1213 22.1574 18.4108 20.2124C21.5171 21.3165 23.3534 25.3837 23.0502 31.8117C22.0796 32.5744 21.1395 33.177 20.2395 33.627C16.9655 35.2611 14.1967 34.8874 12.3547 32.7918Z" fill="#006838"/>
<g id="Group_2">
<path id="Vector_4" d="M5.71709 13.4512C5.31856 14.2883 5.05542 15.1521 4.92766 16.0254C4.0734 16.4659 3.18481 17.0436 2.26953 17.7625C2.24855 18.224 2.23711 18.674 2.23711 19.1126C2.23711 19.9992 2.28097 20.8363 2.36678 21.6181C1.82714 22.2131 1.36569 22.9415 0.98623 23.79C0.236844 21.8565 -0.114013 19.309 0.0328129 16.2142C1.00148 15.4533 1.94155 14.8489 2.84349 14.3989C3.85411 13.8936 4.81515 13.5808 5.71709 13.4512Z" fill="#F7941E"/>
<path id="Vector_5" d="M16.6585 35.0842C15.6384 36.829 13.9737 38.4669 11.6645 39.8627C10.6291 39.2373 9.72339 38.5623 8.94731 37.851C8.07779 37.054 7.37035 36.2131 6.8269 35.3435C7.62777 35.3378 8.38479 35.1795 9.08078 34.8725C9.82636 35.5399 10.6882 36.173 11.6645 36.7641C12.7095 36.1311 13.6229 35.4503 14.4047 34.7314C15.0339 34.966 15.7089 35.088 16.4183 35.088C16.4965 35.088 16.5785 35.0861 16.6585 35.0842Z" fill="#F7941E"/>
<path id="Vector_6" d="M22.9606 17.3085C22.9606 18.1837 22.9167 19.0113 22.8347 19.7874C22.6936 21.0878 22.44 22.2434 22.0834 23.2445C21.6792 22.4112 21.1853 21.7057 20.6171 21.1374C20.7258 20.0296 20.7525 18.8187 20.6915 17.5087C19.7152 16.7403 18.7675 16.1339 17.8598 15.682C17.6996 14.8239 17.406 13.9811 16.9827 13.1611C18.7541 13.3499 20.7677 14.2595 22.9301 15.9585C22.9492 16.4218 22.9606 16.8718 22.9606 17.3085Z" fill="#F7941E"/>
</g>
<path id="Vector_7" d="M13.2757 7.14284L11.468 9.31091L9.65845 7.14284L10.9227 5.625L11.468 6.27904L12.0115 5.625L13.2757 7.14284Z" fill="#006838"/>
<path id="Vector_8" d="M12.7534 4.23501L11.4681 5.77573L10.181 4.23501L11.4681 2.69238L12.7534 4.23501Z" fill="#006838"/>
<path id="Vector_9" d="M11.5616 0.936503L11.5101 0.968918L11.5178 0.915527C11.533 0.921248 11.5483 0.926968 11.5616 0.936503Z" fill="#006838"/>
<path id="Vector_10" d="M11.6626 1.62822V3.22805C11.6626 3.35772 11.5749 3.4626 11.4662 3.4626C11.3594 3.4626 11.2717 3.35772 11.2717 3.22805V1.51953C11.3709 1.59008 11.4872 1.63013 11.6131 1.63013C11.6302 1.63203 11.6455 1.63013 11.6626 1.62822Z" fill="#006838"/>
<g id="Group_3">
<path id="Vector_11" d="M12.3299 1.0335C12.3299 1.52356 12.0458 1.93353 11.6644 2.03841C11.6015 2.05748 11.5348 2.0651 11.468 2.0651C11.4013 2.0651 11.3364 2.05557 11.2735 2.03841C10.8922 1.93353 10.608 1.52356 10.608 1.0335C10.608 0.46336 10.9932 0 11.4699 0C11.4947 0 11.5214 8.14773e-07 11.5462 0.00381448C11.203 0.0457648 10.936 0.392808 10.936 0.816125C10.936 1.1174 11.0733 1.38055 11.2754 1.52165C11.3746 1.59221 11.4909 1.63225 11.6167 1.63225C11.6339 1.63225 11.6511 1.63225 11.6682 1.63034C12.021 1.59983 12.2975 1.24707 12.2975 0.818031C12.2975 0.785615 12.2956 0.753199 12.2918 0.720783C12.3146 0.818032 12.3299 0.922908 12.3299 1.0335Z" fill="#006838"/>
<path id="Vector_12" d="M11.7864 0.762735L11.8169 0.968674L11.6624 0.871423L11.5614 0.936258L11.5099 0.968674L11.5175 0.915283L11.5385 0.762735L11.4146 0.617817L11.5862 0.589213L11.6624 0.402344L11.7387 0.589213L11.9103 0.617817L11.7864 0.762735Z" fill="#006838"/>
</g>
<g id="Group_4">
<path id="Vector_13" d="M11.3251 19.589C10.5909 19.3964 10.3011 18.6928 10.3163 18.1227C10.3316 17.5449 10.671 16.9557 11.0714 16.8394C10.5871 17.5334 10.5318 18.2027 10.9075 18.7557C11.2087 19.2 11.8361 19.4574 12.4749 18.9922C12.391 19.2782 12.0458 19.5051 11.5196 19.6176C11.5196 19.9456 11.5176 20.2755 11.5215 20.6054C11.5215 20.6454 11.5424 20.6873 11.5577 20.7274C11.8304 21.4482 12.2403 22.0355 12.78 22.4893C12.8391 22.5389 12.9058 22.577 12.9745 22.6056C14.9271 23.4408 16.0864 25.0807 16.4563 27.5253C16.5612 28.2213 16.5059 28.902 16.3172 29.5675C16.3076 29.5999 16.2676 29.6266 16.2371 29.6438C16.218 29.6552 16.1894 29.6457 16.1646 29.6457C13.0031 29.6457 9.84154 29.6457 6.68001 29.6495C6.5675 29.6495 6.52937 29.6075 6.50458 29.4836C6.41496 29.0488 6.31962 28.6198 6.33487 28.164C6.42449 25.6203 7.83174 23.3951 9.85679 22.6075C9.92925 22.5789 10.0017 22.5408 10.0627 22.4874C10.6024 22.0336 11.0123 21.4463 11.285 20.7255C11.3022 20.6778 11.3232 20.6244 11.3232 20.5748C11.3251 20.2488 11.3251 19.9246 11.3251 19.589Z" fill="#006838"/>
<path id="Vector_14" d="M11.9123 18.0215C11.7598 17.8842 11.6206 17.8766 11.4699 18.0273C11.5138 17.8175 11.5024 17.6421 11.3231 17.52C11.5119 17.5162 11.6358 17.4247 11.6778 17.1787C11.7331 17.295 11.7579 17.3999 11.8151 17.4514C11.8704 17.501 11.96 17.4914 12.0611 17.5143C11.9047 17.6421 11.838 17.7965 11.9123 18.0215Z" fill="#006838"/>
</g>
</g>
<g id="Group_5">
<g id="Talimus Sunnah">
<path id="Vector_15" d="M72.5657 3.29066C72.9214 3.29066 73.2132 3.40465 73.4412 3.63264C73.6692 3.85606 73.7832 4.16156 73.7832 4.54913V6.79932C73.7832 6.82212 73.774 6.84264 73.7558 6.86088C73.7421 6.87456 73.7239 6.8814 73.7011 6.8814H72.7299C72.7071 6.8814 72.6866 6.87456 72.6683 6.86088C72.6546 6.84264 72.6478 6.82212 72.6478 6.79932V4.79535C72.6478 4.64032 72.6045 4.51265 72.5179 4.41234C72.4312 4.31203 72.3195 4.26187 72.1827 4.26187C72.0414 4.26187 71.9274 4.31203 71.8407 4.41234C71.7541 4.50809 71.7108 4.63576 71.7108 4.79535V6.79932C71.7108 6.82212 71.7017 6.84264 71.6834 6.86088C71.6698 6.87456 71.6515 6.8814 71.6287 6.8814H70.6575C70.6347 6.8814 70.6142 6.87456 70.596 6.86088C70.5823 6.84264 70.5754 6.82212 70.5754 6.79932V2.17582C70.5754 2.15303 70.5823 2.13479 70.596 2.12111C70.6142 2.10287 70.6347 2.09375 70.6575 2.09375H71.6287C71.6515 2.09375 71.6698 2.10287 71.6834 2.12111C71.7017 2.13479 71.7108 2.15303 71.7108 2.17582V3.68051C71.7108 3.69875 71.7131 3.71015 71.7176 3.71471C71.7268 3.71471 71.7359 3.70787 71.745 3.69419C71.9183 3.42517 72.1918 3.29066 72.5657 3.29066Z" fill="#006838"/>
<path id="Vector_16" d="M68.3926 3.29102C68.6981 3.29102 68.9739 3.34345 69.2202 3.44832C69.4664 3.54864 69.6602 3.68999 69.8015 3.87237C69.9429 4.0502 70.0135 4.24855 70.0135 4.46741V6.79968C70.0135 6.82248 70.0044 6.84299 69.9862 6.86123C69.9725 6.87491 69.9543 6.88175 69.9315 6.88175H68.9603C68.9375 6.88175 68.9169 6.87491 68.8987 6.86123C68.885 6.84299 68.8782 6.82248 68.8782 6.79968V6.56029C68.8782 6.54206 68.8736 6.53294 68.8645 6.53294C68.8554 6.52838 68.8463 6.53522 68.8371 6.55346C68.6639 6.8088 68.3675 6.93647 67.948 6.93647C67.5832 6.93647 67.2914 6.85211 67.0726 6.68341C66.8582 6.51014 66.7511 6.25708 66.7511 5.92422C66.7511 5.57313 66.8719 5.30183 67.1136 5.11032C67.3598 4.91882 67.7155 4.82306 68.1806 4.82306H68.844C68.8668 4.82306 68.8782 4.81166 68.8782 4.78887V4.65891C68.8782 4.5358 68.8371 4.44005 68.7551 4.37166C68.673 4.2987 68.559 4.26222 68.4131 4.26222C68.3037 4.26222 68.2079 4.28274 68.1258 4.32378C68.0483 4.36482 67.9982 4.41725 67.9754 4.48109C67.9526 4.53124 67.9207 4.55404 67.8796 4.54948L66.8947 4.41953C66.84 4.41041 66.8127 4.38989 66.8127 4.35798C66.8309 4.15735 66.9084 3.97725 67.0452 3.81766C67.1865 3.65351 67.3735 3.52584 67.606 3.43465C67.8431 3.33889 68.1053 3.29102 68.3926 3.29102ZM68.2831 6.12257C68.4564 6.12257 68.5978 6.07925 68.7072 5.99262C68.8212 5.90142 68.8782 5.78287 68.8782 5.63696V5.47281C68.8782 5.45002 68.8668 5.43862 68.844 5.43862H68.4336C68.2603 5.43862 68.1258 5.46826 68.0301 5.52753C67.9389 5.58681 67.8933 5.67572 67.8933 5.79427C67.8933 5.89458 67.9275 5.97438 67.9959 6.03365C68.0643 6.09293 68.16 6.12257 68.2831 6.12257Z" fill="#006838"/>
<path id="Vector_17" d="M65.1451 3.29102C65.5007 3.29102 65.7926 3.40501 66.0205 3.63299C66.2485 3.85641 66.3625 4.16191 66.3625 4.54948V6.79968C66.3625 6.82248 66.3534 6.84299 66.3352 6.86123C66.3215 6.87491 66.3032 6.88175 66.2804 6.88175H65.3092C65.2864 6.88175 65.2659 6.87491 65.2477 6.86123C65.234 6.84299 65.2272 6.82248 65.2272 6.79968V4.7957C65.2272 4.64068 65.1838 4.51301 65.0972 4.41269C65.0106 4.31238 64.8989 4.26222 64.7621 4.26222C64.6207 4.26222 64.5067 4.31238 64.4201 4.41269C64.3335 4.50845 64.2901 4.63612 64.2901 4.7957V6.79968C64.2901 6.82248 64.281 6.84299 64.2628 6.86123C64.2491 6.87491 64.2309 6.88175 64.2081 6.88175H63.2369C63.2141 6.88175 63.1935 6.87491 63.1753 6.86123C63.1616 6.84299 63.1548 6.82248 63.1548 6.79968V3.42781C63.1548 3.40501 63.1616 3.38677 63.1753 3.37309C63.1935 3.35485 63.2141 3.34573 63.2369 3.34573H64.2081C64.2309 3.34573 64.2491 3.35485 64.2628 3.37309C64.281 3.38677 64.2901 3.40501 64.2901 3.42781V3.68087C64.2901 3.69911 64.2924 3.7105 64.297 3.71506C64.3061 3.71506 64.3152 3.70823 64.3243 3.69455C64.4976 3.42553 64.7712 3.29102 65.1451 3.29102Z" fill="#006838"/>
<path id="Vector_18" d="M61.3847 3.29102C61.7404 3.29102 62.0322 3.40501 62.2602 3.63299C62.4881 3.85641 62.6021 4.16191 62.6021 4.54948V6.79968C62.6021 6.82248 62.593 6.84299 62.5748 6.86123C62.5611 6.87491 62.5429 6.88175 62.5201 6.88175H61.5489C61.5261 6.88175 61.5055 6.87491 61.4873 6.86123C61.4736 6.84299 61.4668 6.82248 61.4668 6.79968V4.7957C61.4668 4.64068 61.4235 4.51301 61.3368 4.41269C61.2502 4.31238 61.1385 4.26222 61.0017 4.26222C60.8603 4.26222 60.7464 4.31238 60.6597 4.41269C60.5731 4.50845 60.5298 4.63612 60.5298 4.7957V6.79968C60.5298 6.82248 60.5206 6.84299 60.5024 6.86123C60.4887 6.87491 60.4705 6.88175 60.4477 6.88175H59.4765C59.4537 6.88175 59.4332 6.87491 59.4149 6.86123C59.4012 6.84299 59.3944 6.82248 59.3944 6.79968V3.42781C59.3944 3.40501 59.4012 3.38677 59.4149 3.37309C59.4332 3.35485 59.4537 3.34573 59.4765 3.34573H60.4477C60.4705 3.34573 60.4887 3.35485 60.5024 3.37309C60.5206 3.38677 60.5298 3.40501 60.5298 3.42781V3.68087C60.5298 3.69911 60.532 3.7105 60.5366 3.71506C60.5457 3.71506 60.5548 3.70823 60.564 3.69455C60.7372 3.42553 61.0108 3.29102 61.3847 3.29102Z" fill="#006838"/>
<path id="Vector_19" d="M57.6858 3.42778C57.6858 3.40498 57.6926 3.38674 57.7063 3.37306C57.7245 3.35482 57.745 3.3457 57.7678 3.3457H58.739C58.7618 3.3457 58.7801 3.35482 58.7938 3.37306C58.812 3.38674 58.8211 3.40498 58.8211 3.42778V6.79965C58.8211 6.82245 58.812 6.84296 58.7938 6.8612C58.7801 6.87488 58.7618 6.88172 58.739 6.88172H57.7678C57.745 6.88172 57.7245 6.87488 57.7063 6.8612C57.6926 6.84296 57.6858 6.82245 57.6858 6.79965V6.56027C57.6858 6.54659 57.6812 6.53747 57.6721 6.53291C57.663 6.52835 57.6538 6.53291 57.6447 6.54659C57.4623 6.80649 57.1751 6.93644 56.783 6.93644C56.4364 6.93644 56.156 6.82701 55.9417 6.60814C55.7274 6.38928 55.6202 6.08378 55.6202 5.69165V3.42778C55.6202 3.40498 55.6271 3.38674 55.6408 3.37306C55.659 3.35482 55.6795 3.3457 55.7023 3.3457H56.6735C56.6963 3.3457 56.7146 3.35482 56.7282 3.37306C56.7465 3.38674 56.7556 3.40498 56.7556 3.42778V5.43175C56.7556 5.59134 56.7966 5.71901 56.8787 5.81476C56.9608 5.91051 57.0725 5.95839 57.2138 5.95839C57.3415 5.95839 57.4464 5.91963 57.5285 5.84212C57.6151 5.7646 57.6675 5.66201 57.6858 5.53434V3.42778Z" fill="#006838"/>
<path id="Vector_20" d="M53.3315 6.93614C52.9531 6.93614 52.6225 6.87687 52.3398 6.75831C52.0617 6.6352 51.8451 6.46194 51.6901 6.23851C51.5396 6.01053 51.4644 5.74835 51.4644 5.45197V5.32202C51.4644 5.29922 51.4712 5.28098 51.4849 5.2673C51.5031 5.24907 51.5236 5.23995 51.5464 5.23995H52.4971C52.5199 5.23995 52.5382 5.24907 52.5518 5.2673C52.5701 5.28098 52.5792 5.29922 52.5792 5.32202V5.40409C52.5792 5.55456 52.6544 5.68679 52.8049 5.80079C52.9554 5.91022 53.1583 5.96493 53.4136 5.96493C53.6142 5.96493 53.7624 5.92162 53.8582 5.83498C53.9539 5.74835 54.0018 5.64804 54.0018 5.53404C54.0018 5.44285 53.9722 5.3699 53.9129 5.31518C53.8582 5.25591 53.7829 5.20803 53.6872 5.17155C53.5914 5.13051 53.4432 5.0758 53.2426 5.0074C53.2153 4.99372 53.1879 4.98461 53.1605 4.98005C53.1332 4.97093 53.1081 4.96181 53.0853 4.95269C52.7889 4.85693 52.5313 4.75434 52.3125 4.64491C52.0936 4.53092 51.9066 4.37589 51.7516 4.17982C51.5966 3.9792 51.5191 3.73298 51.5191 3.44116C51.5191 3.15846 51.592 2.91224 51.7379 2.70249C51.8884 2.48819 52.0959 2.32404 52.3603 2.21005C52.6248 2.09606 52.9234 2.03906 53.2563 2.03906C53.6074 2.03906 53.922 2.1029 54.2002 2.23057C54.4829 2.35824 54.704 2.53835 54.8636 2.77089C55.0232 3.00343 55.103 3.27017 55.103 3.57111V3.66686C55.103 3.68966 55.0938 3.71018 55.0756 3.72842C55.0619 3.7421 55.0437 3.74894 55.0209 3.74894H54.0702C54.0474 3.74894 54.0269 3.7421 54.0086 3.72842C53.995 3.71018 53.9881 3.68966 53.9881 3.66686V3.61899C53.9881 3.4594 53.9175 3.31805 53.7761 3.19494C53.6348 3.07183 53.4455 3.01027 53.2084 3.01027C53.0306 3.01027 52.8915 3.04675 52.7912 3.1197C52.6909 3.19266 52.6407 3.29525 52.6407 3.42748C52.6407 3.52779 52.6727 3.61215 52.7365 3.68054C52.8003 3.74438 52.8984 3.80593 53.0306 3.86521C53.1674 3.91992 53.3749 3.99288 53.653 4.08407C53.9722 4.1935 54.2207 4.28926 54.3985 4.37133C54.5763 4.4534 54.7428 4.58791 54.8978 4.77486C55.0574 4.95725 55.1372 5.19891 55.1372 5.49985C55.1372 5.79623 55.0619 6.05157 54.9115 6.26587C54.761 6.48018 54.549 6.6466 54.2754 6.76515C54.0064 6.87915 53.6918 6.93614 53.3315 6.93614Z" fill="#006838"/>
<path id="Vector_21" d="M48.1886 6.93647C47.8648 6.93647 47.5821 6.89315 47.3405 6.80652C47.0988 6.71532 46.9119 6.58993 46.7796 6.43034C46.652 6.2662 46.5881 6.07925 46.5881 5.86951V5.79427C46.5881 5.77147 46.595 5.75323 46.6087 5.73956C46.6269 5.72132 46.6474 5.7122 46.6702 5.7122H47.5935C47.6163 5.7122 47.6346 5.72132 47.6483 5.73956C47.6665 5.75323 47.6756 5.77147 47.6756 5.79427C47.6756 5.88091 47.7235 5.95386 47.8192 6.01314C47.915 6.06785 48.0358 6.09521 48.1817 6.09521C48.3094 6.09521 48.4097 6.07469 48.4827 6.03365C48.5602 5.98806 48.5989 5.92878 48.5989 5.85583C48.5989 5.78287 48.5579 5.73044 48.4758 5.69852C48.3983 5.66204 48.2706 5.62784 48.0928 5.59593C47.8056 5.54121 47.573 5.47509 47.3952 5.39758C47.1627 5.30183 46.978 5.18328 46.8412 5.04193C46.7044 4.89602 46.636 4.69767 46.636 4.44689C46.636 4.09124 46.7728 3.81082 47.0464 3.60563C47.3245 3.39589 47.6893 3.29102 48.1407 3.29102C48.4462 3.29102 48.7129 3.34117 48.9409 3.44148C49.1735 3.53724 49.3536 3.67403 49.4812 3.85185C49.6089 4.02968 49.6727 4.23487 49.6727 4.46741C49.6727 4.49021 49.6636 4.51073 49.6454 4.52896C49.6317 4.54264 49.6135 4.54948 49.5907 4.54948H48.6947C48.6719 4.54948 48.6514 4.54264 48.6331 4.52896C48.6195 4.51073 48.6126 4.49021 48.6126 4.46741C48.6126 4.38078 48.5716 4.3101 48.4895 4.25538C48.4074 4.20067 48.2957 4.17331 48.1544 4.17331C48.0267 4.17331 47.9218 4.19611 47.8398 4.24171C47.7622 4.28274 47.7235 4.34202 47.7235 4.41953C47.7235 4.49705 47.7668 4.55404 47.8534 4.59052C47.9401 4.62244 48.086 4.65891 48.2912 4.69995C48.5556 4.75467 48.7403 4.79798 48.8452 4.8299C49.1279 4.9211 49.3467 5.04421 49.5018 5.19924C49.6613 5.35426 49.7411 5.56173 49.7411 5.82163C49.7411 6.17728 49.5998 6.45314 49.3171 6.64921C49.039 6.84071 48.6628 6.93647 48.1886 6.93647Z" fill="#006838"/>
<path id="Vector_22" d="M44.9752 3.42778C44.9752 3.40498 44.982 3.38674 44.9957 3.37306C45.014 3.35482 45.0345 3.3457 45.0573 3.3457H46.0285C46.0513 3.3457 46.0695 3.35482 46.0832 3.37306C46.1014 3.38674 46.1106 3.40498 46.1106 3.42778V6.79965C46.1106 6.82245 46.1014 6.84296 46.0832 6.8612C46.0695 6.87488 46.0513 6.88172 46.0285 6.88172H45.0573C45.0345 6.88172 45.014 6.87488 44.9957 6.8612C44.982 6.84296 44.9752 6.82245 44.9752 6.79965V6.56027C44.9752 6.54659 44.9706 6.53747 44.9615 6.53291C44.9524 6.52835 44.9433 6.53291 44.9342 6.54659C44.7518 6.80649 44.4645 6.93644 44.0724 6.93644C43.7258 6.93644 43.4454 6.82701 43.2311 6.60814C43.0168 6.38928 42.9097 6.08378 42.9097 5.69165V3.42778C42.9097 3.40498 42.9165 3.38674 42.9302 3.37306C42.9484 3.35482 42.9689 3.3457 42.9917 3.3457H43.963C43.9857 3.3457 44.004 3.35482 44.0177 3.37306C44.0359 3.38674 44.045 3.40498 44.045 3.42778V5.43175C44.045 5.59134 44.0861 5.71901 44.1681 5.81476C44.2502 5.91051 44.3619 5.95839 44.5033 5.95839C44.6309 5.95839 44.7358 5.91963 44.8179 5.84212C44.9045 5.7646 44.957 5.66201 44.9752 5.53434V3.42778Z" fill="#006838"/>
<path id="Vector_23" d="M41.2488 3.29102C41.6045 3.29102 41.8826 3.40045 42.0832 3.61931C42.2839 3.83818 42.3842 4.14595 42.3842 4.54264V6.79968C42.3842 6.82248 42.3751 6.84299 42.3568 6.86123C42.3431 6.87491 42.3249 6.88175 42.3021 6.88175H41.3377C41.3149 6.88175 41.2944 6.87491 41.2762 6.86123C41.2625 6.84299 41.2557 6.82248 41.2557 6.79968V4.78887C41.2557 4.63384 41.2146 4.50845 41.1325 4.41269C41.055 4.31238 40.9502 4.26222 40.8179 4.26222C40.6857 4.26222 40.5763 4.3101 40.4896 4.40585C40.4076 4.50161 40.3665 4.62928 40.3665 4.78887V6.79968C40.3665 6.82248 40.3574 6.84299 40.3392 6.86123C40.3255 6.87491 40.3072 6.88175 40.2844 6.88175H39.3132C39.2904 6.88175 39.2699 6.87491 39.2517 6.86123C39.238 6.84299 39.2312 6.82248 39.2312 6.79968V4.78887C39.2312 4.63384 39.1878 4.50845 39.1012 4.41269C39.0191 4.31238 38.912 4.26222 38.7798 4.26222C38.6566 4.26222 38.5541 4.30098 38.472 4.3785C38.3899 4.45601 38.3398 4.5586 38.3215 4.68627V6.79968C38.3215 6.82248 38.3124 6.84299 38.2942 6.86123C38.2805 6.87491 38.2622 6.88175 38.2394 6.88175H37.2682C37.2454 6.88175 37.2249 6.87491 37.2067 6.86123C37.193 6.84299 37.1862 6.82248 37.1862 6.79968V3.42781C37.1862 3.40501 37.193 3.38677 37.2067 3.37309C37.2249 3.35485 37.2454 3.34573 37.2682 3.34573H38.2394C38.2622 3.34573 38.2805 3.35485 38.2942 3.37309C38.3124 3.38677 38.3215 3.40501 38.3215 3.42781V3.73558C38.3215 3.75382 38.3261 3.76522 38.3352 3.76978C38.3443 3.76978 38.3534 3.76066 38.3626 3.74242C38.5404 3.44148 38.8322 3.29102 39.238 3.29102C39.466 3.29102 39.6666 3.34117 39.8399 3.44148C40.0131 3.5418 40.1454 3.68771 40.2366 3.87921C40.2503 3.90657 40.2639 3.90429 40.2776 3.87237C40.3734 3.67631 40.5033 3.5304 40.6675 3.43465C40.8362 3.33889 41.03 3.29102 41.2488 3.29102Z" fill="#006838"/>
<path id="Vector_24" d="M36.0377 3.03089C35.8644 3.03089 35.7208 2.97618 35.6068 2.86674C35.4973 2.75275 35.4426 2.60912 35.4426 2.43586C35.4426 2.25803 35.4973 2.1144 35.6068 2.00497C35.7208 1.89554 35.8644 1.84082 36.0377 1.84082C36.2109 1.84082 36.3523 1.89554 36.4617 2.00497C36.5757 2.1144 36.6327 2.25803 36.6327 2.43586C36.6327 2.60456 36.5757 2.74591 36.4617 2.85991C36.3523 2.9739 36.2109 3.03089 36.0377 3.03089ZM35.5452 6.88153C35.5224 6.88153 35.5019 6.87469 35.4837 6.86101C35.47 6.84277 35.4631 6.82225 35.4631 6.79946V3.42758C35.4631 3.40479 35.47 3.38655 35.4837 3.37287C35.5019 3.35463 35.5224 3.34551 35.5452 3.34551H36.5164C36.5392 3.34551 36.5575 3.35463 36.5711 3.37287C36.5894 3.38655 36.5985 3.40479 36.5985 3.42758V6.79946C36.5985 6.82225 36.5894 6.84277 36.5711 6.86101C36.5575 6.87469 36.5392 6.88153 36.5164 6.88153H35.5452Z" fill="#006838"/>
<path id="Vector_25" d="M33.8284 6.8814C33.8056 6.8814 33.7851 6.87456 33.7669 6.86088C33.7532 6.84264 33.7463 6.82212 33.7463 6.79932V2.17582C33.7463 2.15303 33.7532 2.13479 33.7669 2.12111C33.7851 2.10287 33.8056 2.09375 33.8284 2.09375H34.7996C34.8224 2.09375 34.8407 2.10287 34.8543 2.12111C34.8726 2.13479 34.8817 2.15303 34.8817 2.17582V6.79932C34.8817 6.82212 34.8726 6.84264 34.8543 6.86088C34.8407 6.87456 34.8224 6.8814 34.7996 6.8814H33.8284Z" fill="#006838"/>
<path id="Vector_26" d="M31.5635 3.29102C31.869 3.29102 32.1448 3.34345 32.3911 3.44832C32.6373 3.54864 32.8311 3.68999 32.9724 3.87237C33.1138 4.0502 33.1844 4.24855 33.1844 4.46741V6.79968C33.1844 6.82248 33.1753 6.84299 33.1571 6.86123C33.1434 6.87491 33.1252 6.88175 33.1024 6.88175H32.1312C32.1084 6.88175 32.0878 6.87491 32.0696 6.86123C32.0559 6.84299 32.0491 6.82248 32.0491 6.79968V6.56029C32.0491 6.54206 32.0445 6.53294 32.0354 6.53294C32.0263 6.52838 32.0172 6.53522 32.008 6.55346C31.8348 6.8088 31.5384 6.93647 31.1189 6.93647C30.7541 6.93647 30.4623 6.85211 30.2435 6.68341C30.0291 6.51014 29.922 6.25708 29.922 5.92422C29.922 5.57313 30.0428 5.30183 30.2845 5.11032C30.5307 4.91882 30.8864 4.82306 31.3515 4.82306H32.0149C32.0377 4.82306 32.0491 4.81166 32.0491 4.78887V4.65891C32.0491 4.5358 32.008 4.44005 31.926 4.37166C31.8439 4.2987 31.7299 4.26222 31.584 4.26222C31.4746 4.26222 31.3788 4.28274 31.2967 4.32378C31.2192 4.36482 31.1691 4.41725 31.1463 4.48109C31.1235 4.53124 31.0916 4.55404 31.0505 4.54948L30.0656 4.41953C30.0109 4.41041 29.9836 4.38989 29.9836 4.35798C30.0018 4.15735 30.0793 3.97725 30.2161 3.81766C30.3574 3.65351 30.5444 3.52584 30.7769 3.43465C31.014 3.33889 31.2762 3.29102 31.5635 3.29102ZM31.454 6.12257C31.6273 6.12257 31.7687 6.07925 31.8781 5.99262C31.9921 5.90142 32.0491 5.78287 32.0491 5.63696V5.47281C32.0491 5.45002 32.0377 5.43862 32.0149 5.43862H31.6045C31.4312 5.43862 31.2967 5.46826 31.201 5.52753C31.1098 5.58681 31.0642 5.67572 31.0642 5.79427C31.0642 5.89458 31.0984 5.97438 31.1668 6.03365C31.2352 6.09293 31.3309 6.12257 31.454 6.12257Z" fill="#006838"/>
<path id="Vector_27" d="M29.8544 2.09375C29.8772 2.09375 29.8955 2.10287 29.9091 2.12111C29.9274 2.13479 29.9365 2.15303 29.9365 2.17582V2.98972C29.9365 3.01252 29.9274 3.03304 29.9091 3.05128C29.8955 3.06496 29.8772 3.0718 29.8544 3.0718H28.6575C28.6347 3.0718 28.6233 3.0832 28.6233 3.106V6.79932C28.6233 6.82212 28.6142 6.84264 28.596 6.86088C28.5823 6.87456 28.564 6.8814 28.5412 6.8814H27.57C27.5472 6.8814 27.5267 6.87456 27.5085 6.86088C27.4948 6.84264 27.488 6.82212 27.488 6.79932V3.106C27.488 3.0832 27.4766 3.0718 27.4538 3.0718H26.2979C26.2751 3.0718 26.2546 3.06496 26.2363 3.05128C26.2227 3.03304 26.2158 3.01252 26.2158 2.98972V2.17582C26.2158 2.15303 26.2227 2.13479 26.2363 2.12111C26.2546 2.10287 26.2751 2.09375 26.2979 2.09375H29.8544Z" fill="#006838"/>
</g>
<g id="Group_6">
<g id="Group_7">
<g id="Group_8">
<path id="Vector_28" d="M30.4595 7.66455H27.1044V10.1772H30.4595V7.66455Z" fill="#D76B22"/>
<path id="Vector_29" d="M35.0385 7.66455H31.6777V10.1772H35.0385V7.66455Z" fill="#D76B22"/>
</g>
</g>
<path id="Vector_30" d="M44.1983 7.66455H40.8375V10.1772H44.1983V7.66455Z" fill="#D76B22"/>
<path id="Vector_31" d="M71.0656 17.5552H64.3497V10.8393H60.9908V17.5552H57.6338V10.8393H54.273V17.5552H50.9142V10.8393H47.5571V17.5552H44.1982V10.8393H40.8375V17.5552H37.4823V10.8393H27.1044V14.1945H30.7627V14.1982H34.1216V17.5552H30.7627V14.1982H27.1044V20.9141H74.4264V7.66455H71.0656V17.5552Z" fill="#006838"/>
<path id="Vector_32" d="M81.1424 7.66455H77.7816V20.9141H81.1424V7.66455Z" fill="#006838"/>
<g id="Group_9">
<g id="Academy">
<path id="Vector_33" d="M57.5582 10.3834C57.5176 10.3834 57.4814 10.38 57.4496 10.3732C57.4178 10.3671 57.3959 10.361 57.3837 10.355L57.4445 10.1439C57.5027 10.1588 57.5541 10.1642 57.5988 10.1602C57.6434 10.1561 57.683 10.1362 57.7175 10.1003C57.7526 10.0651 57.7847 10.008 57.8138 9.92886L57.8585 9.80712L57.2822 8.24072H57.5419L57.9721 9.48248H57.9883L58.4185 8.24072H58.6782L58.0167 10.0263C57.987 10.1067 57.9501 10.1734 57.9061 10.2261C57.8622 10.2795 57.8111 10.3191 57.753 10.3448C57.6955 10.3705 57.6305 10.3834 57.5582 10.3834Z" fill="#D76B22"/>
<path id="Vector_34" d="M54.9768 9.79879V8.2405H55.2081V8.48399H55.2284C55.2609 8.4008 55.3133 8.33621 55.3857 8.29022C55.458 8.24355 55.5449 8.22021 55.6464 8.22021C55.7492 8.22021 55.8347 8.24355 55.9031 8.29022C55.972 8.33621 56.0258 8.4008 56.0644 8.48399H56.0806C56.1205 8.4035 56.1804 8.33959 56.2602 8.29224C56.34 8.24422 56.4357 8.22021 56.5473 8.22021C56.6866 8.22021 56.8006 8.26384 56.8892 8.35109C56.9778 8.43766 57.0221 8.57259 57.0221 8.75587V9.79879H56.7826V8.75587C56.7826 8.6409 56.7512 8.55872 56.6883 8.50935C56.6254 8.45998 56.5513 8.43529 56.4661 8.43529C56.3565 8.43529 56.2717 8.46843 56.2115 8.53471C56.1513 8.60032 56.1212 8.68351 56.1212 8.78428V9.79879H55.8777V8.73153C55.8777 8.64293 55.8489 8.57157 55.7915 8.51747C55.734 8.46268 55.6599 8.43529 55.5693 8.43529C55.5071 8.43529 55.4489 8.45186 55.3948 8.485C55.3414 8.51814 55.2981 8.56413 55.2649 8.62297C55.2325 8.68114 55.2162 8.74844 55.2162 8.82486V9.79879H54.9768Z" fill="#D76B22"/>
<path id="Vector_35" d="M53.9674 9.83125C53.8172 9.83125 53.6877 9.79811 53.5788 9.73183C53.4706 9.66487 53.3871 9.57154 53.3282 9.45183C53.27 9.33144 53.241 9.19144 53.241 9.03182C53.241 8.87221 53.27 8.73153 53.3282 8.60979C53.3871 8.48737 53.4689 8.392 53.5737 8.32369C53.6792 8.25471 53.8023 8.22021 53.943 8.22021C54.0242 8.22021 54.1043 8.23374 54.1834 8.2608C54.2626 8.28785 54.3346 8.33181 54.3995 8.39268C54.4645 8.45288 54.5162 8.53268 54.5548 8.6321C54.5933 8.73153 54.6126 8.85394 54.6126 8.99936V9.10081H53.4114V8.89385H54.3691C54.3691 8.80592 54.3515 8.72747 54.3163 8.65848C54.2819 8.5895 54.2325 8.53505 54.1682 8.49515C54.1047 8.45524 54.0296 8.43529 53.943 8.43529C53.8476 8.43529 53.7651 8.45896 53.6955 8.50631C53.6265 8.55297 53.5734 8.61384 53.5362 8.68892C53.499 8.76399 53.4804 8.84448 53.4804 8.93037V9.06834C53.4804 9.18603 53.5007 9.28579 53.5413 9.36762C53.5825 9.44878 53.6397 9.51067 53.7127 9.55328C53.7858 9.59521 53.8706 9.61618 53.9674 9.61618C54.0303 9.61618 54.0871 9.60739 54.1378 9.5898C54.1892 9.57154 54.2335 9.54449 54.2707 9.50864C54.3079 9.47212 54.3366 9.4268 54.3569 9.3727L54.5882 9.43762C54.5639 9.51608 54.523 9.58507 54.4655 9.64458C54.408 9.70343 54.337 9.74942 54.2524 9.78256C54.1679 9.81502 54.0729 9.83125 53.9674 9.83125Z" fill="#D76B22"/>
<path id="Vector_36" d="M52.128 9.83137C51.9982 9.83137 51.8835 9.79857 51.7841 9.73296C51.6847 9.66668 51.6069 9.57334 51.5508 9.45296C51.4946 9.33189 51.4666 9.18885 51.4666 9.02382C51.4666 8.86015 51.4946 8.71811 51.5508 8.59773C51.6069 8.47734 51.685 8.38434 51.7851 8.31874C51.8852 8.25313 52.0009 8.22033 52.1321 8.22033C52.2335 8.22033 52.3137 8.23724 52.3725 8.27105C52.432 8.3042 52.4773 8.34207 52.5085 8.38468C52.5402 8.42661 52.5649 8.46111 52.5825 8.48816H52.6028V7.72119H52.8422V9.7989H52.6109V9.55948H52.5825C52.5649 9.58789 52.5399 9.62373 52.5074 9.66702C52.475 9.70963 52.4286 9.74784 52.3685 9.78166C52.3083 9.8148 52.2281 9.83137 52.128 9.83137ZM52.1605 9.61629C52.2565 9.61629 52.3377 9.59127 52.404 9.54122C52.4702 9.49049 52.5206 9.42049 52.5551 9.33122C52.5896 9.24126 52.6069 9.13744 52.6069 9.01976C52.6069 8.90343 52.59 8.80164 52.5561 8.71439C52.5223 8.62647 52.4723 8.55816 52.406 8.50946C52.3397 8.46009 52.2579 8.4354 52.1605 8.4354C52.059 8.4354 51.9745 8.46144 51.9068 8.51352C51.8399 8.56492 51.7895 8.63492 51.7557 8.72353C51.7225 8.81145 51.706 8.91019 51.706 9.01976C51.706 9.13068 51.7229 9.23146 51.7567 9.32208C51.7912 9.41204 51.8419 9.48373 51.9089 9.53716C51.9765 9.58991 52.0604 9.61629 52.1605 9.61629Z" fill="#D76B22"/>
<path id="Vector_37" d="M50.3884 9.83531C50.2897 9.83531 50.2001 9.81671 50.1196 9.77951C50.0391 9.74164 49.9752 9.68719 49.9278 9.61618C49.8805 9.54449 49.8568 9.45791 49.8568 9.35646C49.8568 9.26719 49.8744 9.19482 49.9096 9.13936C49.9447 9.08322 49.9917 9.03926 50.0506 9.00747C50.1094 8.97568 50.1744 8.95201 50.2454 8.93646C50.3171 8.92023 50.3891 8.90737 50.4615 8.89791C50.5561 8.88573 50.6329 8.8766 50.6918 8.87051C50.7513 8.86375 50.7946 8.85259 50.8216 8.83704C50.8493 8.82148 50.8632 8.79443 50.8632 8.75587V8.74776C50.8632 8.64766 50.8358 8.56988 50.781 8.51442C50.7269 8.45896 50.6447 8.43123 50.5345 8.43123C50.4202 8.43123 50.3306 8.45626 50.2657 8.50631C50.2007 8.55636 50.1551 8.60979 50.1287 8.6666L49.9014 8.58544C49.942 8.49075 49.9961 8.41703 50.0638 8.36427C50.1321 8.31084 50.2065 8.27365 50.287 8.25268C50.3681 8.23104 50.4479 8.22021 50.5264 8.22021C50.5764 8.22021 50.6339 8.2263 50.6989 8.23848C50.7645 8.24997 50.8277 8.27398 50.8886 8.31051C50.9501 8.34703 51.0012 8.40215 51.0418 8.47587C51.0823 8.54959 51.1026 8.64834 51.1026 8.77211V9.79879H50.8632V9.58777H50.851C50.8348 9.62159 50.8077 9.65777 50.7699 9.69632C50.732 9.73487 50.6816 9.76768 50.6187 9.79473C50.5558 9.82178 50.479 9.83531 50.3884 9.83531ZM50.4249 9.62024C50.5196 9.62024 50.5994 9.60164 50.6644 9.56444C50.73 9.52724 50.7793 9.47922 50.8125 9.42038C50.8463 9.36154 50.8632 9.29965 50.8632 9.23472V9.01559C50.8531 9.02776 50.8307 9.03892 50.7962 9.04907C50.7624 9.05854 50.7232 9.06699 50.6786 9.07443C50.6346 9.08119 50.5917 9.08728 50.5497 9.09269C50.5085 9.09743 50.475 9.10148 50.4493 9.10487C50.3871 9.11298 50.3289 9.12617 50.2748 9.14443C50.2214 9.16202 50.1781 9.18873 50.1449 9.22458C50.1125 9.25975 50.0962 9.30777 50.0962 9.36864C50.0962 9.45183 50.127 9.51473 50.1886 9.55734C50.2508 9.59927 50.3296 9.62024 50.4249 9.62024Z" fill="#D76B22"/>
<path id="Vector_38" d="M48.9671 9.83125C48.821 9.83125 48.6952 9.79676 48.5897 9.72777C48.4842 9.65879 48.403 9.56376 48.3462 9.4427C48.2894 9.32163 48.261 9.18332 48.261 9.02776C48.261 8.8695 48.2901 8.72984 48.3482 8.60877C48.4071 8.48703 48.4889 8.392 48.5937 8.32369C48.6993 8.25471 48.8223 8.22021 48.963 8.22021C49.0726 8.22021 49.1713 8.24051 49.2593 8.28109C49.3472 8.32167 49.4192 8.37848 49.4754 8.45152C49.5315 8.52457 49.5663 8.60979 49.5798 8.70718H49.3404C49.3222 8.63616 49.2816 8.57326 49.2187 8.51848C49.1565 8.46302 49.0726 8.43529 48.9671 8.43529C48.8737 8.43529 48.7919 8.45964 48.7216 8.50833C48.6519 8.55635 48.5975 8.62433 48.5582 8.71225C48.5197 8.7995 48.5004 8.90196 48.5004 9.01965C48.5004 9.14004 48.5193 9.24487 48.5572 9.33414C48.5958 9.42342 48.6499 9.49275 48.7195 9.54212C48.7899 9.59149 48.8724 9.61618 48.9671 9.61618C49.0293 9.61618 49.0858 9.60536 49.1365 9.58371C49.1872 9.56207 49.2302 9.53096 49.2653 9.49038C49.3005 9.4498 49.3255 9.4011 49.3404 9.34429H49.5798C49.5663 9.43627 49.5328 9.51912 49.4794 9.59284C49.4267 9.66589 49.3567 9.72405 49.2694 9.76734C49.1828 9.80995 49.0821 9.83125 48.9671 9.83125Z" fill="#D76B22"/>
<path id="Vector_39" d="M46.5211 9.7989H46.2573L47.0202 7.72119H47.2799L48.0429 9.7989H47.7791L47.1582 8.04989H47.142L46.5211 9.7989ZM46.6185 8.9873H47.6817V9.21049H46.6185V8.9873Z" fill="#D76B22"/>
</g>
</g>
<path id="Vector_40" d="M84.1999 7.66455H81.8677V11.0234H84.1999V7.66455Z" fill="#D76B22"/>
<path id="Vector_41" d="M84.1999 13.9043H81.8677V17.2632H84.1999V13.9043Z" fill="#D76B22"/>
<g id="Group_10">
<g id="Group_11">
<path id="Vector_42" d="M48.461 36.6392H45.1058V39.9999H48.461V36.6392Z" fill="#D76B22"/>
<path id="Vector_43" d="M53.0381 36.6392H49.6774V39.9999H53.0381V36.6392Z" fill="#D76B22"/>
</g>
</g>
<path id="Vector_44" d="M30.4633 35.0715H84.1999V21.6396H80.841V31.7145H74.1251V28.3556H77.484V24.9967H67.4092V28.3556H70.7681V31.7145H60.6858V21.6396H57.3344V31.7145H50.611V24.9985H47.2521V31.7145H43.8933V24.9985H33.8185V31.7145H27.1025V39.8699H30.4614V35.0715H30.4633ZM37.1792 28.3556H40.5381V31.7145H37.1792V28.3556Z" fill="#D76B22"/>
</g>
</g>
</g>
</svg>
