<svg width="40" height="41" viewBox="0 0 40 41" fill="none" xmlns="http://www.w3.org/2000/svg">
<g clip-path="url(#clip0_1_3240)">
<path d="M40 20.0859C40 9.04031 31.0456 0.0859375 20 0.0859375C8.95437 0.0859375 0 9.04031 0 20.0859C0 30.0684 7.31375 38.3427 16.875 39.843V25.8672H11.7969V20.0859H16.875V15.6797C16.875 10.6672 19.8609 7.89844 24.4294 7.89844C26.6175 7.89844 28.9062 8.28906 28.9062 8.28906V13.2109H26.3844C23.8998 13.2109 23.125 14.7527 23.125 16.3344V20.0859H28.6719L27.7852 25.8672H23.125V39.843C32.6862 38.3427 40 30.0686 40 20.0859Z" fill="#1877F2"/>
<path d="M27.7852 25.8672L28.6719 20.0859H23.125V16.3344C23.125 14.7525 23.8998 13.2109 26.3844 13.2109H28.9062V8.28906C28.9062 8.28906 26.6175 7.89844 24.4292 7.89844C19.8609 7.89844 16.875 10.6672 16.875 15.6797V20.0859H11.7969V25.8672H16.875V39.843C17.9088 40.005 18.9536 40.0862 20 40.0859C21.0464 40.0862 22.0912 40.005 23.125 39.843V25.8672H27.7852Z" fill="white"/>
</g>
<defs>
<clipPath id="clip0_1_3240">
<rect width="40" height="40" fill="white" transform="translate(0 0.0859375)"/>
</clipPath>
</defs>
</svg>
