<svg width="152" height="62" viewBox="0 0 152 62" fill="none" xmlns="http://www.w3.org/2000/svg">
<path fill-rule="evenodd" clip-rule="evenodd" d="M52.7688 24.6419H33.676V0.34552H52.7688V24.6419Z" fill="#A5E9FF"/>
<path fill-rule="evenodd" clip-rule="evenodd" d="M24.9079 61.0852H5.81506V36.7888H24.9079V61.0852Z" fill="#A5E9FF"/>
<path fill-rule="evenodd" clip-rule="evenodd" d="M18.7299 0L57.5621 44.5597L39.697 60.6797L0.864624 16.12L18.7299 0Z" fill="#00C2FF"/>
<path d="M123.035 43.5972L133.089 30.4388L123.035 17.4892H131.284L137.111 25.6349L142.937 17.4892H151.135L141.081 30.4388L151.135 43.5972H142.937L137.111 35.3471L131.233 43.5972H123.035Z" fill="#545454"/>
<path d="M112.331 44.4321C105.37 44.4321 99.0797 39.8894 99.0797 30.5427C99.0797 21.8749 104.7 16.6533 112.537 16.6533C120.013 16.6533 125.582 21.0394 125.582 29.655C125.582 30.7516 125.479 31.5348 125.375 32.1092H105.679C105.834 36.9131 109.031 39.0017 112.64 39.0017C115.373 39.0017 117.796 37.8529 118.569 35.0855H125.221C124.241 41.3514 118.982 44.4321 112.331 44.4321ZM105.834 28.0363H118.621C118.673 24.2246 116.198 21.7182 112.382 21.7182C108.67 21.7182 106.04 24.2768 105.834 28.0363Z" fill="#545454"/>
<path d="M73.5621 43.5962V27.827L80.4196 17.4883L80.3165 24.0153H80.5743C81.2446 19.9424 84.6476 16.705 88.9786 16.705C95.269 16.705 97.7955 20.7257 97.7955 27.827V43.5962H90.9379V28.6103C90.9379 24.5897 89.0818 22.4488 85.885 22.4488C82.3789 22.4488 80.4196 25.9995 80.4196 29.8634V43.5962H73.5621Z" fill="#545454"/>
</svg>
