<svg width="32" height="32" viewBox="0 0 32 32" fill="none" xmlns="http://www.w3.org/2000/svg">
<g id="Frame">
<g id="Group">
<path id="Layer 2" d="M27.9305 24.5664L25.7091 26.5131C24.237 27.8012 22.3942 28.5891 20.4459 28.7634C18.4976 28.9377 16.5443 28.4894 14.8669 27.483C10.62 24.9346 7.0655 21.3802 4.51712 17.1332C3.51074 15.4559 3.06244 13.5025 3.23672 11.5542C3.41101 9.6059 4.1989 7.76312 5.48701 6.29104L7.4337 4.06964C7.69143 3.77533 8.01347 3.54431 8.37486 3.39448C8.73624 3.24466 9.12727 3.18005 9.51764 3.20566C9.90801 3.23127 10.2872 3.34642 10.626 3.54218C10.9647 3.73794 11.2538 4.00905 11.4708 4.33451L13.7011 7.68238C13.9327 8.02934 14.0368 8.44587 13.9957 8.86099C13.9546 9.27611 13.7708 9.66413 13.4756 9.95892L10.8466 12.5831C11.6204 14.5164 12.7786 16.2725 14.2512 17.745C15.7237 19.2176 17.4798 20.3758 19.4131 21.1497L22.0402 18.5226C22.335 18.2274 22.723 18.0436 23.1382 18.0025C23.5533 17.9614 23.9698 18.0655 24.3168 18.2971L27.6646 20.5273C27.9905 20.7443 28.2621 21.0334 28.4581 21.3723C28.6542 21.7111 28.7696 22.0906 28.7953 22.4812C28.821 22.8719 28.7564 23.2632 28.6064 23.6248C28.4564 23.9864 28.2251 24.3087 27.9305 24.5664Z" fill="#00A32E"/>
</g>
</g>
</svg>
