<svg width="120" height="20" viewBox="0 0 120 20" fill="none" xmlns="http://www.w3.org/2000/svg">
<path d="M0.812856 19.5278C0.528033 19.5638 0.261398 19.4481 0.16064 19.2457C0.0561385 19.0168 0.223829 18.7505 0.52539 18.6466C12.8712 14.4405 25.8905 11.8766 38.902 9.84561C48.2408 8.04003 57.6194 6.45057 67.0285 5.10232C55.7423 6.0424 44.4807 7.67275 33.5173 9.27434L8.7953 12.8698C8.44949 12.9225 8.17841 12.7685 8.1111 12.5349C8.04341 12.2984 8.23863 12.0496 8.54391 11.9751C31.4102 5.75121 57.0636 1.95724 84.801 0.70305C85.1386 0.687253 85.4149 0.879429 85.409 1.13122C85.4034 1.38596 85.155 1.61165 84.8059 1.63787C72.3279 2.71073 59.789 4.29638 47.3501 6.37445C57.9458 4.95086 68.6976 3.76752 79.4343 3.45879C79.7596 3.44455 80.0229 3.63541 80.0289 3.87972C80.0337 4.01958 79.9512 4.16149 79.8117 4.25384C92.7496 2.73728 105.805 1.65712 118.794 1.73606C119.135 1.74081 119.387 1.95089 119.357 2.20873C119.326 2.46368 119.026 2.67207 118.685 2.66733C97.6963 2.53314 76.4042 5.47972 55.8305 8.33247C50.2878 9.09914 44.6712 9.87516 39.0667 10.7512C26.2025 13.2477 13.455 16.1717 0.897651 19.4991C0.860466 19.5038 0.823276 19.5085 0.786091 19.5132L0.812856 19.5278ZM52.4596 4.37147C40.2059 5.92105 28.4884 8.03044 17.3692 10.6888L30.0513 8.84294C30.1353 8.70978 30.2859 8.60707 30.483 8.57318C40.2996 6.56371 50.2304 4.85959 60.2013 3.47616C57.6051 3.75067 55.0245 4.04711 52.4596 4.37147Z" fill="#E9562B"/>
</svg>
