<svg width="40" height="41" viewBox="0 0 40 41" fill="none" xmlns="http://www.w3.org/2000/svg">
<g clip-path="url(#clip0_1_3245)">
<path d="M30.625 0.0859375H9.375C4.19733 0.0859375 0 4.28327 0 9.46094V30.7109C0 35.8886 4.19733 40.0859 9.375 40.0859H30.625C35.8027 40.0859 40 35.8886 40 30.7109V9.46094C40 4.28327 35.8027 0.0859375 30.625 0.0859375Z" fill="url(#paint0_radial_1_3245)"/>
<path d="M30.625 0.0859375H9.375C4.19733 0.0859375 0 4.28327 0 9.46094V30.7109C0 35.8886 4.19733 40.0859 9.375 40.0859H30.625C35.8027 40.0859 40 35.8886 40 30.7109V9.46094C40 4.28327 35.8027 0.0859375 30.625 0.0859375Z" fill="url(#paint1_radial_1_3245)"/>
<path d="M20.0014 4.46094C15.758 4.46094 15.2253 4.47953 13.5588 4.55531C11.8953 4.63156 10.7598 4.89484 9.76641 5.28125C8.73859 5.68031 7.86688 6.21422 6.99844 7.08297C6.12922 7.95156 5.59531 8.82328 5.195 9.85063C4.8075 10.8444 4.54391 11.9803 4.46906 13.643C4.39453 15.3097 4.375 15.8425 4.375 20.0861C4.375 24.3297 4.39375 24.8606 4.46938 26.5272C4.54594 28.1906 4.80922 29.3261 5.19531 30.3195C5.59469 31.3473 6.12859 32.2191 6.99734 33.0875C7.86563 33.9567 8.73734 34.4919 9.76438 34.8909C10.7586 35.2773 11.8942 35.5406 13.5573 35.6169C15.2241 35.6927 15.7563 35.7113 19.9995 35.7113C24.2434 35.7113 24.7744 35.6927 26.4409 35.6169C28.1044 35.5406 29.2411 35.2773 30.2353 34.8909C31.2627 34.4919 32.1331 33.9567 33.0012 33.0875C33.8705 32.2191 34.4042 31.3473 34.8047 30.32C35.1887 29.3261 35.4525 28.1903 35.5306 26.5275C35.6055 24.8609 35.625 24.3297 35.625 20.0861C35.625 15.8425 35.6055 15.31 35.5306 13.6433C35.4525 11.9798 35.1887 10.8445 34.8047 9.85109C34.4042 8.82328 33.8705 7.95156 33.0012 7.08297C32.1322 6.21391 31.263 5.68 30.2344 5.28141C29.2383 4.89484 28.1022 4.63141 26.4387 4.55531C24.772 4.47953 24.2414 4.46094 19.9966 4.46094H20.0014ZM18.5997 7.27672C19.0158 7.27609 19.48 7.27672 20.0014 7.27672C24.1734 7.27672 24.6678 7.29172 26.3153 7.36656C27.8387 7.43625 28.6656 7.69078 29.2164 7.90469C29.9456 8.18781 30.4655 8.52641 31.012 9.07344C31.5589 9.62031 31.8973 10.1411 32.1813 10.8703C32.3952 11.4203 32.65 12.2472 32.7194 13.7706C32.7942 15.4178 32.8105 15.9125 32.8105 20.0825C32.8105 24.2525 32.7942 24.7473 32.7194 26.3944C32.6497 27.9178 32.3952 28.7447 32.1813 29.2948C31.8981 30.0241 31.5589 30.5433 31.012 31.0898C30.4652 31.6367 29.9459 31.9752 29.2164 32.2584C28.6663 32.4733 27.8387 32.7272 26.3153 32.7969C24.6681 32.8717 24.1734 32.888 20.0014 32.888C15.8292 32.888 15.3347 32.8717 13.6877 32.7969C12.1642 32.7266 11.3373 32.472 10.7861 32.2581C10.057 31.9748 9.53609 31.6364 8.98922 31.0895C8.44234 30.5427 8.10391 30.0231 7.82 29.2936C7.60609 28.7434 7.35125 27.9166 7.28188 26.3931C7.20703 24.7459 7.19203 24.2513 7.19203 20.0786C7.19203 15.9059 7.20703 15.4139 7.28188 13.7667C7.35156 12.2433 7.60609 11.4164 7.82 10.8656C8.10328 10.1364 8.44234 9.61563 8.98938 9.06875C9.53641 8.52188 10.057 8.18328 10.7862 7.89953C11.337 7.68469 12.1642 7.43078 13.6877 7.36078C15.1291 7.29562 15.6877 7.27609 18.5997 7.27281V7.27672ZM28.342 9.87109C27.3069 9.87109 26.467 10.7102 26.467 11.7455C26.467 12.7806 27.3069 13.6205 28.342 13.6205C29.3772 13.6205 30.217 12.7806 30.217 11.7455C30.217 10.7103 29.3772 9.87047 28.342 9.87047V9.87109ZM20.0014 12.0619C15.5702 12.0619 11.9773 15.6547 11.9773 20.0861C11.9773 24.5175 15.5702 28.1086 20.0014 28.1086C24.4328 28.1086 28.0244 24.5175 28.0244 20.0861C28.0244 15.6548 24.4325 12.0619 20.0011 12.0619H20.0014ZM20.0014 14.8777C22.8778 14.8777 25.2098 17.2094 25.2098 20.0861C25.2098 22.9625 22.8778 25.2945 20.0014 25.2945C17.125 25.2945 14.7931 22.9625 14.7931 20.0861C14.7931 17.2094 17.1248 14.8777 20.0014 14.8777Z" fill="white"/>
</g>
<defs>
<radialGradient id="paint0_radial_1_3245" cx="0" cy="0" r="1" gradientUnits="userSpaceOnUse" gradientTransform="translate(10.625 43.1667) rotate(-90) scale(39.643 36.8711)">
<stop stop-color="#FFDD55"/>
<stop offset="0.1" stop-color="#FFDD55"/>
<stop offset="0.5" stop-color="#FF543E"/>
<stop offset="1" stop-color="#C837AB"/>
</radialGradient>
<radialGradient id="paint1_radial_1_3245" cx="0" cy="0" r="1" gradientUnits="userSpaceOnUse" gradientTransform="translate(-6.70016 2.96734) rotate(78.681) scale(17.7206 73.045)">
<stop stop-color="#3771C8"/>
<stop offset="0.128" stop-color="#3771C8"/>
<stop offset="1" stop-color="#6600FF" stop-opacity="0"/>
</radialGradient>
<clipPath id="clip0_1_3245">
<rect width="40" height="40" fill="white" transform="translate(0 0.0859375)"/>
</clipPath>
</defs>
</svg>
