<svg width="100" height="96" viewBox="0 0 100 96" fill="none" xmlns="http://www.w3.org/2000/svg">
<path fill-rule="evenodd" clip-rule="evenodd" d="M41.9948 10.1262C41.1124 10.2034 40.5961 10.4201 39.9446 10.9539C39.1012 11.6495 39.0344 11.825 37.9728 16.2799C37.3228 18.9148 36.6773 22.4108 36.4217 24.4472C36.1894 26.4035 35.6068 29.9235 35.0974 32.2657C34.6244 34.5879 33.9427 38.1598 33.6217 40.216C33.3057 42.2402 32.8884 44.4165 32.7396 44.9966C32.398 46.3294 32.6782 47.2631 33.4852 47.4594C33.9179 47.557 34.2634 47.409 34.6899 46.9347C36.2334 45.2554 40.0953 38.706 47.0018 27.3731C48.5788 24.7901 51.1361 20.6594 52.7101 18.1981C54.2814 15.7249 55.6979 13.4494 55.7856 13.1814C56.054 12.4011 55.3337 11.3893 54.0685 10.8399C53.1556 10.4472 51.8849 10.2536 48.0506 10.1108C45.3826 9.99904 42.6352 10.0579 41.9948 10.1262ZM52.2996 12.9588C52.6669 13.0764 51.9788 14.1991 48.6847 19.3342C46.4969 22.7231 44.2376 26.5655 43.5232 27.947C42.7664 29.345 41.8951 30.8345 41.5151 31.2817C41.1339 31.7508 39.8646 33.7919 38.7112 35.8323C37.5589 37.8508 36.5956 39.5061 36.5392 39.5403C36.3134 39.6776 36.7414 37.4164 37.9643 31.9502C38.6439 28.8582 39.3388 25.1569 39.4609 23.7174C39.6218 22.2709 40.1881 19.135 40.6996 16.7494C41.0118 15.3042 41.3327 13.8739 41.6476 12.4406C43.3716 12.4499 45.0909 12.4907 46.8026 12.5511C49.6228 12.6428 52.0688 12.8817 52.2795 12.9736L52.2996 12.9588Z" fill="#00A32E"/>
<path fill-rule="evenodd" clip-rule="evenodd" d="M63.233 28.3414C62.8559 28.4775 62.1963 28.9185 61.7622 29.3559C59.1194 31.8906 54.2711 36.969 51.4224 40.1957C49.6078 42.264 46.4033 45.7794 44.3755 47.9897C41.2119 51.3979 40.7623 52.0086 40.7362 52.6463C40.7233 53.0216 40.8605 53.4201 41.0463 53.5017C41.4181 53.7779 49.9051 48.957 52.3252 47.0639C53.4306 46.2116 55.5857 44.6534 57.113 43.6047C61.4158 40.6972 67.2119 36.5835 67.7623 35.9548C68.5063 35.1215 68.4564 33.9627 67.508 32.1267C66.7927 30.7034 64.6644 28.2841 64.1046 28.1597C63.9745 28.1217 63.5937 28.2107 63.2229 28.3491L63.233 28.3414ZM64.9796 32.9955C65.3688 33.8139 65.5523 34.5654 65.4246 34.6729C65.3041 34.7614 63.7444 35.8765 62.0143 37.116C56.4461 41.0491 52.3018 44.1284 50.1397 45.762C48.9641 46.6656 48.0111 47.3643 47.9606 47.345C47.9101 47.3258 48.1588 46.9956 48.5102 46.6047C48.8505 46.2429 50.6186 44.2018 52.5168 42.0657C54.4015 39.9461 57.6554 36.4719 59.757 34.3902C64.0599 30.0978 63.6653 30.2041 64.9745 32.9712L64.9796 32.9955Z" fill="#00A32E"/>
<path fill-rule="evenodd" clip-rule="evenodd" d="M20.2153 27.0979C19.5223 27.2473 18.0122 27.644 16.8654 27.9219C13.6671 28.8035 13.8824 28.561 16.8723 34.3149C17.738 36.0073 18.6075 38.1262 18.8857 38.9138C20.0959 42.168 22.2659 45.8435 23.4106 45.8555C24.0769 45.8521 24.2722 45.2448 24.1552 43.2566C24.1081 42.3561 24.0669 40.7762 24.0491 39.7416C24.0347 34.9995 23.519 28.9937 23.2567 28.1456C23.0939 27.4916 22.2941 26.8399 21.7232 26.8016C21.5872 26.817 20.893 26.9319 20.2126 27.0861L20.2153 27.0979ZM20.823 31.6867C20.9192 32.762 21.1114 34.3438 21.2326 35.1829C21.4794 36.8303 21.5787 38.5992 21.4302 38.4198C21.3694 38.3518 21.1404 37.6061 20.8887 36.8061C20.6318 35.9818 19.8683 34.1158 19.1404 32.6877C18.4188 31.262 17.7642 30.0967 17.7766 30.0451C17.7877 30.016 18.3493 29.7942 19.0823 29.616C19.9762 29.3755 20.3941 29.3222 20.4882 29.4925C20.5774 29.6378 20.7205 30.6089 20.8356 31.6914L20.823 31.6867Z" fill="#00A32E"/>
<path fill-rule="evenodd" clip-rule="evenodd" d="M81.8378 50.3465C74.7891 52.7208 67.7926 55.4511 59.2377 59.0273C55.624 60.5437 51.6656 62.1303 50.3148 62.621C48.2314 63.3464 47.8172 63.5796 47.5631 64.2084C47.2057 65.0893 47.5513 65.9466 48.3009 66.009C48.5557 66.0612 49.4955 65.9279 50.3771 65.7391C51.2687 65.5425 52.9546 65.2916 54.1626 65.1375C56.5095 64.8588 75.6407 61.7147 77.5807 61.4038C78.2509 61.2573 80.4732 60.9643 82.517 60.7602C84.5546 60.5536 86.4833 60.2723 86.7757 60.0931C87.6367 59.6168 88.4686 57.5095 88.7938 54.9301C89.1207 52.1945 88.7343 48.9977 88.0786 48.6697C87.8312 48.5415 85.0336 49.2629 81.8277 50.3542L81.8378 50.3465ZM86.0288 54.8262C85.6582 56.5953 85.4041 57.2242 85.1636 57.2106C84.4301 57.1436 78.5609 57.8452 75.9496 58.3247C72.894 58.8697 64.3715 60.3694 63.283 60.5133C62.6904 60.5889 62.6652 60.5792 63.098 60.3539C63.5196 60.1011 78.5185 54.4665 83.1188 53.0356C84.8117 52.4628 86.2879 52.098 86.3843 52.2243C86.4617 52.3435 86.3143 53.5269 86.0288 54.8262Z" fill="#00A32E"/>
<path fill-rule="evenodd" clip-rule="evenodd" d="M73.0721 79.6705C72.7851 79.684 71.3806 79.6519 69.9547 79.6C68.5226 79.5457 64.9386 79.5425 62.0737 79.5682C59.1763 79.6032 55.2513 79.4707 53.3193 79.2484C50.8129 78.9973 49.6078 78.9732 49.1224 79.2797C48.3103 79.7415 48.2457 79.873 48.2683 80.6861C48.2832 81.2729 50.1098 82.5494 58.0355 87.1679C59.0266 87.7349 61.4729 89.2816 63.4444 90.6141C67.0307 93.0201 67.046 93.0368 67.8783 92.6167C68.6693 92.2481 68.8043 92.0646 70.7095 88.7913C72.8964 85.0442 74.586 81.521 74.6037 80.7348C74.6041 80.1647 73.8414 79.6623 73.0784 79.6729L73.0721 79.6705ZM70.5241 84.4979C69.972 85.6053 69.0638 87.1919 68.5335 87.9953C68.199 88.4938 67.8648 88.9916 67.5365 89.4925C65.8433 88.3782 64.1438 87.2614 62.4481 86.1346C59.6347 84.2803 57.3669 82.7012 57.4019 82.6474C57.4242 82.5887 58.7827 82.5707 60.4616 82.5846C62.1215 82.5912 64.1901 82.5309 65.0571 82.437C66.8419 82.2678 70.9823 82.2143 71.3019 82.3809C71.4471 82.4362 71.111 83.2803 70.5316 84.4784L70.5241 84.4979Z" fill="#00A32E"/>
</svg>
