<svg width="1176" height="219" viewBox="0 0 1176 219" fill="none" xmlns="http://www.w3.org/2000/svg">
<path d="M306.931 206.809C306.931 205.433 307.68 204.242 308.784 203.591C304.26 199.43 301.451 194.617 301.451 187.748C301.451 167.5 326.102 163.513 326.102 154.199C326.102 163.513 350.753 167.5 350.753 187.748C350.753 194.616 347.945 199.429 343.421 203.59C344.525 204.241 345.273 205.431 345.273 206.809C345.273 208.808 343.709 210.425 341.739 210.532V230.537C343.709 230.644 345.273 232.261 345.273 234.26C345.273 236.26 343.709 237.879 341.739 237.985V248.43H387.951V233.195H393.255V222.705H393.694C384.344 213.589 378.617 202.993 378.617 188.201C378.617 146.447 424.754 135.124 433.273 117.57C431.777 117.942 430.235 118.144 428.681 118.144C422.873 118.144 417.449 115.555 413.8 111.041C412.531 109.468 411.519 107.716 410.794 105.833L410.682 105.54L410.945 105.711C414.015 107.703 417.58 108.756 421.255 108.756C425.566 108.756 429.791 107.257 433.153 104.534C439.539 99.3558 441.86 90.716 438.927 83.0342L438.815 82.7422L439.077 82.9125C440.765 84.0088 442.266 85.3637 443.538 86.939C446.754 90.9155 448.231 95.907 447.695 100.995C447.161 106.083 444.677 110.658 440.705 113.877C439.168 115.122 437.446 116.1 435.624 116.813C443.157 134.806 490.623 145.85 490.623 188.2C490.623 202.992 484.898 213.589 475.547 222.705H475.987V233.194H481.289V248.429H527.502V237.938C525.53 237.831 523.961 236.213 523.961 234.215C523.961 232.216 525.53 230.598 527.502 230.492V210.485C525.53 210.379 523.961 208.761 523.961 206.763C523.961 205.387 524.713 204.197 525.819 203.547C521.296 199.387 518.486 194.574 518.486 187.705C518.486 167.457 543.14 163.467 543.14 154.153C543.14 163.466 567.788 167.457 567.788 187.705C567.788 194.575 564.978 199.387 560.454 203.547C561.559 204.197 562.309 205.387 562.309 206.763C562.309 208.761 560.741 210.378 558.772 210.485V230.492C560.741 230.599 562.309 232.217 562.309 234.215C562.309 236.212 560.741 237.831 558.772 237.938V248.429H558.794V444.086H528.086V290.979C528.086 279.897 512.228 272.636 512.228 272.636C512.228 272.636 496.371 279.896 496.371 290.979V444.086H456.856V279.564C456.856 264.025 434.619 253.845 434.619 253.845C434.619 253.845 412.384 264.025 412.384 279.564V444.086H372.869V290.979C372.869 279.897 357.012 272.636 357.012 272.636C357.012 272.636 341.154 279.896 341.154 290.979V444.086H310.446V248.43H310.466V237.985C308.497 237.879 306.931 236.26 306.931 234.26C306.931 232.261 308.497 230.643 310.466 230.537V210.533C308.498 210.426 306.931 208.808 306.931 206.809Z" fill="#D2DED7"/>
<path d="M-25.2696 152.416C-25.2696 150.726 -24.3503 149.264 -22.9946 148.465C-28.5508 143.355 -32 137.446 -32 129.012C-32 104.152 -1.72556 99.2564 -1.72556 87.8213C-1.72556 99.2564 28.5488 104.152 28.5488 129.012C28.5488 137.445 25.1005 143.355 19.5434 148.464C20.8992 149.263 21.8184 150.724 21.8184 152.416C21.8184 154.87 19.8973 156.855 17.4782 156.987V181.55C19.8973 181.68 21.8184 183.666 21.8184 186.12C21.8184 188.575 19.8973 190.563 17.4782 190.694V203.518H74.2316V184.813H80.7454V171.933H81.2851C69.8026 160.741 62.7687 147.731 62.7687 129.569C62.7687 78.3033 119.43 64.4006 129.893 42.8474C128.055 43.3049 126.162 43.5525 124.253 43.5525C117.121 43.5525 110.46 40.3738 105.978 34.8317C104.419 32.9001 103.177 30.7491 102.286 28.4368L102.148 28.0775L102.471 28.2875C106.241 30.7329 110.62 32.026 115.133 32.026C120.428 32.026 125.616 30.1849 129.745 26.8424C137.588 20.4842 140.439 9.87624 136.836 0.444431L136.699 0.0859375L137.021 0.295058C139.093 1.64112 140.937 3.3047 142.5 5.23886C146.449 10.1212 148.262 16.2497 147.605 22.4969C146.948 28.7441 143.898 34.3614 139.02 38.3133C137.133 39.8421 135.018 41.043 132.78 41.9179C142.031 64.0105 200.325 77.5701 200.325 129.568C200.325 147.729 193.294 160.74 181.81 171.933H182.35V184.812H188.862V203.518H245.617V190.636C243.196 190.505 241.269 188.518 241.269 186.065C241.269 183.611 243.196 181.624 245.617 181.494V156.93C243.196 156.799 241.269 154.813 241.269 152.359C241.269 150.67 242.191 149.208 243.55 148.41C237.995 143.303 234.544 137.393 234.544 128.959C234.544 104.1 264.822 99.2001 264.822 87.7642C264.822 99.1993 295.093 104.1 295.093 128.959C295.093 137.394 291.642 143.303 286.086 148.41C287.443 149.209 288.364 150.67 288.364 152.359C288.364 154.812 286.439 156.798 284.021 156.93V181.494C286.439 181.626 288.364 183.612 288.364 186.065C288.364 188.517 286.439 190.504 284.021 190.636V203.518H284.047V443.745H246.334V255.76C246.334 242.153 226.859 233.238 226.859 233.238C226.859 233.238 207.385 242.152 207.385 255.76V443.745H158.856V241.744C158.856 222.665 131.546 210.167 131.546 210.167C131.546 210.167 104.238 222.666 104.238 241.744V443.745H55.7091V255.76C55.7091 242.153 36.2351 233.238 36.2351 233.238C36.2351 233.238 16.7593 242.152 16.7593 255.76V443.745H-20.9532V203.518H-20.9284V190.694C-23.3467 190.564 -25.2704 188.576 -25.2704 186.12C-25.2704 183.666 -23.3467 181.679 -20.9284 181.55V156.988C-23.3459 156.857 -25.2696 154.87 -25.2696 152.416Z" fill="#D2DED7"/>
<path d="M868.645 206.809C868.645 205.433 867.896 204.242 866.792 203.591C871.316 199.43 874.125 194.617 874.125 187.748C874.125 167.5 849.474 163.513 849.474 154.199C849.474 163.513 824.823 167.5 824.823 187.748C824.823 194.616 827.631 199.429 832.156 203.59C831.052 204.241 830.303 205.431 830.303 206.809C830.303 208.808 831.867 210.425 833.837 210.532V230.537C831.867 230.644 830.303 232.261 830.303 234.26C830.303 236.26 831.867 237.879 833.837 237.985V248.43H787.625V233.195H782.322V222.705H781.882C791.232 213.589 796.959 202.993 796.959 188.201C796.959 146.447 750.822 135.124 742.303 117.57C743.799 117.942 745.341 118.144 746.895 118.144C752.703 118.144 758.127 115.555 761.776 111.041C763.045 109.468 764.057 107.716 764.782 105.833L764.894 105.54L764.631 105.711C761.561 107.703 757.996 108.756 754.321 108.756C750.01 108.756 745.785 107.257 742.423 104.534C736.037 99.3558 733.716 90.716 736.649 83.0342L736.761 82.7422L736.499 82.9125C734.812 84.0088 733.31 85.3637 732.038 86.939C728.822 90.9155 727.346 95.907 727.881 100.995C728.415 106.083 730.899 110.658 734.871 113.877C736.408 115.122 738.13 116.1 739.952 116.813C732.42 134.806 684.953 145.85 684.953 188.2C684.953 202.992 690.679 213.589 700.029 222.705H699.589V233.194H694.287V248.429H648.074V237.938C650.046 237.831 651.615 236.213 651.615 234.215C651.615 232.216 650.046 230.598 648.074 230.492V210.485C650.046 210.379 651.615 208.761 651.615 206.763C651.615 205.387 650.864 204.197 649.758 203.547C654.28 199.387 657.09 194.574 657.09 187.705C657.09 167.457 632.436 163.467 632.436 154.153C632.436 163.466 607.788 167.457 607.788 187.705C607.788 194.575 610.598 199.387 615.122 203.547C614.017 204.197 613.267 205.387 613.267 206.763C613.267 208.761 614.835 210.378 616.804 210.485V230.492C614.835 230.599 613.267 232.217 613.267 234.215C613.267 236.212 614.835 237.831 616.804 237.938V248.429H616.782V444.086H647.49V290.979C647.49 279.897 663.348 272.636 663.348 272.636C663.348 272.636 679.205 279.896 679.205 290.979V444.086H718.72V279.564C718.72 264.025 740.957 253.845 740.957 253.845C740.957 253.845 763.192 264.025 763.192 279.564V444.086H802.707V290.979C802.707 279.897 818.564 272.636 818.564 272.636C818.564 272.636 834.423 279.896 834.423 290.979V444.086H865.13V248.43H865.11V237.985C867.079 237.879 868.645 236.26 868.645 234.26C868.645 232.261 867.079 230.643 865.11 230.537V210.533C867.078 210.426 868.645 208.808 868.645 206.809Z" fill="#D2DED7"/>
<path d="M1200.85 152.416C1200.85 150.726 1199.93 149.264 1198.57 148.465C1204.13 143.355 1207.58 137.446 1207.58 129.012C1207.58 104.152 1177.3 99.2564 1177.3 87.8213C1177.3 99.2564 1147.03 104.152 1147.03 129.012C1147.03 137.445 1150.48 143.355 1156.03 148.464C1154.68 149.263 1153.76 150.724 1153.76 152.416C1153.76 154.87 1155.68 156.855 1158.1 156.987V181.55C1155.68 181.68 1153.76 183.666 1153.76 186.12C1153.76 188.575 1155.68 190.563 1158.1 190.694V203.518H1101.34V184.813H1094.83V171.933H1094.29C1105.77 160.741 1112.81 147.731 1112.81 129.569C1112.81 78.3033 1056.15 64.4006 1045.68 42.8474C1047.52 43.3049 1049.41 43.5525 1051.32 43.5525C1058.46 43.5525 1065.12 40.3738 1069.6 34.8317C1071.16 32.9001 1072.4 30.7491 1073.29 28.4368L1073.43 28.0775L1073.1 28.2875C1069.33 30.7329 1064.96 32.026 1060.44 32.026C1055.15 32.026 1049.96 30.1849 1045.83 26.8424C1037.99 20.4842 1035.14 9.87624 1038.74 0.444431L1038.88 0.0859375L1038.55 0.295058C1036.48 1.64112 1034.64 3.3047 1033.08 5.23886C1029.13 10.1212 1027.31 16.2497 1027.97 22.4969C1028.63 28.7441 1031.68 34.3614 1036.56 38.3133C1038.44 39.8421 1040.56 41.043 1042.8 41.9179C1033.55 64.0105 975.251 77.5701 975.251 129.568C975.251 147.729 982.282 160.74 993.766 171.933H993.226V184.812H986.714V203.518H929.959V190.636C932.38 190.505 934.308 188.518 934.308 186.065C934.308 183.611 932.38 181.624 929.959 181.494V156.93C932.38 156.799 934.308 154.813 934.308 152.359C934.308 150.67 933.385 149.208 932.027 148.41C937.581 143.303 941.032 137.393 941.032 128.959C941.032 104.1 910.754 99.2001 910.754 87.7642C910.754 99.1993 880.483 104.1 880.483 128.959C880.483 137.394 883.934 143.303 889.49 148.41C888.133 149.209 887.212 150.67 887.212 152.359C887.212 154.812 889.137 156.798 891.556 156.93V181.494C889.137 181.626 887.212 183.612 887.212 186.065C887.212 188.517 889.137 190.504 891.556 190.636V203.518H891.529V443.745H929.242V255.76C929.242 242.153 948.717 233.238 948.717 233.238C948.717 233.238 968.191 242.152 968.191 255.76V443.745H1016.72V241.744C1016.72 222.665 1044.03 210.167 1044.03 210.167C1044.03 210.167 1071.34 222.666 1071.34 241.744V443.745H1119.87V255.76C1119.87 242.153 1139.34 233.238 1139.34 233.238C1139.34 233.238 1158.82 242.152 1158.82 255.76V443.745H1196.53V203.518H1196.5V190.694C1198.92 190.564 1200.85 188.576 1200.85 186.12C1200.85 183.666 1198.92 181.679 1196.5 181.55V156.988C1198.92 156.857 1200.85 154.87 1200.85 152.416Z" fill="#D2DED7"/>
</svg>
