<svg width="284" height="96" viewBox="0 0 284 96" fill="none" xmlns="http://www.w3.org/2000/svg">
<path d="M1.85679 60.9097C2.21401 70.5581 7.96885 79.9543 16.5737 85.416C23.581 89.8203 31.3531 91.3251 39.3415 92.283C111.504 100.277 184.233 94.8028 254.531 75.6046C258.276 74.4809 261.907 73.1559 265.325 71.3536C271.648 68.1214 277.139 62.787 280.131 56.3393C289.598 36.2488 274.371 17.8671 254.867 15.348C250.887 14.6778 246.756 14.3864 242.695 14.1331C208.181 11.9914 173.545 11.7881 139.008 13.27C138.749 13.2587 139.132 13.1864 139.895 13.0877C169.57 9.11599 199.426 7.03232 229.122 5.14407C232.201 4.1744 231.112 0.578017 227.864 0.820703C178.633 3.03772 129.281 8.83672 80.5371 17.6156C54.591 20.515 28.7071 24.091 3.03659 28.9705C2.01472 29.191 1.00441 29.567 0.493911 30.343C-0.205861 31.357 0.244505 32.8794 1.41444 33.3226C2.2159 33.6584 3.17076 33.5649 4.0419 33.4292C10.7461 32.2137 17.4987 30.9638 24.2149 29.913C24.6446 29.8661 24.7733 29.897 24.5566 30.0307C12.1221 34.911 1.70226 45.3662 1.85266 60.818L1.85679 60.9097ZM40.2797 30.4521C53.7196 27.5099 67.2323 24.6701 80.8071 22.3003C134.12 16.5662 187.888 15.4672 241.403 18.6585C243.559 18.791 245.911 18.9376 248.129 19.1407C255.486 19.8149 262.697 21.1705 268.693 25.7305C283.171 36.7402 280.388 56.4012 265.829 65.6883C262.084 68.1067 257.992 69.7051 253.653 71.0483C212.976 82.338 171.203 88.6727 129.448 90.6495C97.3688 91.9104 64.774 91.303 32.7954 86.6138C27.865 85.633 23.1511 84.1098 18.9245 81.3984C9.13675 75.1039 3.91544 63.0208 7.83928 52.3485C12.708 37.8276 27.306 33.0473 40.1989 30.4741L40.2799 30.4567L40.2797 30.4521Z" fill="#00A32E"/>
</svg>
