<svg width="400" height="88" viewBox="0 0 400 88" fill="none" xmlns="http://www.w3.org/2000/svg">
<path d="M0.244006 44.6456C-0.0388604 54.2545 7.34004 63.9926 19.0752 70.023C28.6351 74.8906 39.5147 76.932 50.7453 78.4455C152.25 91.4621 255.656 91.1402 356.742 77.0154C362.136 76.1627 367.384 75.1019 372.371 73.5523C381.586 70.7864 389.796 65.874 394.558 59.68C409.603 40.39 389.548 21.0604 362.144 17.1862C356.564 16.2406 350.739 15.6605 345.011 15.1232C296.326 10.5681 247.31 7.92991 198.297 6.97246C197.93 6.94301 198.478 6.89809 199.568 6.85381C241.902 4.99607 284.337 5.02643 326.531 5.23969C330.969 4.49309 329.721 0.844191 325.103 0.856778C255.228 -0.404017 184.89 1.8847 115.167 7.17607C78.199 8.23089 41.2641 9.96226 4.52462 13.0034C3.05999 13.1505 1.599 13.453 0.812893 14.1878C-0.260622 15.1458 0.252517 16.6897 1.87252 17.2122C2.97967 17.6021 4.33906 17.5764 5.58339 17.5029C15.1736 16.7671 24.8351 16.0006 34.4288 15.4292C35.0409 15.4129 35.2205 15.4526 34.9028 15.5702C16.901 19.5432 1.29563 29.1953 0.245653 44.5543L0.244006 44.6456ZM57.127 17.0948C76.3937 15.1177 95.7552 13.2474 115.166 11.8483C191.108 9.90279 267.314 12.5932 342.812 19.5275C345.853 19.8107 349.171 20.1218 352.295 20.4796C362.655 21.6667 372.753 23.5205 380.868 28.4717C400.463 40.426 394.917 59.7596 373.548 67.9604C368.048 70.0991 362.125 71.3989 355.872 72.4279C297.365 80.7807 237.711 84.1346 178.438 83.161C132.922 82.1571 86.8291 79.261 41.9417 72.3538C35.0421 71.0327 28.4932 69.1881 22.7315 66.1976C9.38982 59.2568 2.98582 46.8873 9.41288 36.5626C17.4921 22.4814 38.5485 18.76 57.0108 17.1109L57.1269 17.0993L57.127 17.0948Z" fill="#00A32E"/>
</svg>
