<svg width="199" height="92" viewBox="0 0 199 92" fill="none" xmlns="http://www.w3.org/2000/svg">
<path d="M2.44189 56.3364C2.81115 65.7315 6.94042 74.9484 13.0077 80.3714C17.9479 84.7452 23.3853 86.3067 28.9667 87.3386C79.3775 96.0182 130.015 91.5962 178.787 73.7867C181.383 72.7397 183.899 71.4953 186.26 69.7838C190.627 66.7166 194.389 61.5932 196.395 55.3551C202.745 35.9192 191.9 17.839 178.27 15.1442C175.487 14.4423 172.603 14.1072 169.769 13.8101C145.679 11.2957 121.529 10.6663 97.4689 11.6783C97.2877 11.6641 97.5539 11.5984 98.0852 11.5119C118.725 8.01601 139.514 6.35997 160.194 4.89213C162.329 3.98673 161.524 0.472867 159.263 0.668603C124.967 2.21304 90.6323 7.24226 56.7576 15.1793C38.7043 17.678 20.703 20.836 2.86652 25.2653C2.15683 25.4671 1.45714 25.8206 1.11089 26.5694C0.635649 27.5477 0.968607 29.035 1.78979 29.4809C2.35275 29.8177 3.0173 29.7386 3.62296 29.6174C8.28191 28.5178 12.9742 27.3855 17.6436 26.4464C17.9425 26.4061 18.0326 26.4378 17.8832 26.5653C9.27484 31.1603 2.1405 41.2063 2.43787 56.2472L2.44189 56.3364ZM28.8505 27.1713C38.184 24.4752 47.5695 21.8795 57.0042 19.7422C94.1022 14.8255 131.575 14.4257 168.925 18.1985C170.429 18.3543 172.071 18.5263 173.62 18.7516C178.758 19.4994 183.802 20.9087 188.039 25.4215C198.27 36.3175 196.575 55.4185 186.54 64.2761C183.959 66.5832 181.126 68.0879 178.118 69.3412C149.899 79.8225 120.854 85.4675 91.7674 86.8712C69.4181 87.6988 46.6858 86.7016 24.3322 81.7393C20.8826 80.7232 17.5771 79.182 14.5966 76.4904C7.69424 70.2421 3.90347 58.4168 6.50616 48.0785C9.71964 34.0062 19.8377 29.5355 28.7944 27.1917L28.8507 27.1757L28.8505 27.1713Z" fill="#00A32E"/>
</svg>
