<svg width="40" height="40" viewBox="0 0 40 40" fill="none" xmlns="http://www.w3.org/2000/svg">
<g clip-path="url(#clip0_2430_55269)">
<path d="M0.870368 29.7898C1.68703 32.6865 4.18537 33.2165 4.35203 33.3182C8.4637 34.4382 31.5104 34.4415 35.6837 33.3182C38.542 32.4915 39.067 29.9565 39.1654 29.7898C40.2537 23.9998 40.3254 16.4515 39.1154 9.8815L39.1654 10.2082C38.3487 7.3115 35.8504 6.7815 35.6837 6.67984C31.627 5.57817 8.52037 5.5365 4.35203 6.67984C1.4937 7.50817 0.968701 10.0415 0.870368 10.2082C-0.294632 16.2932 -0.352965 23.2748 0.870368 29.7898ZM16.0137 26.0848V13.9298L26.457 20.0165L16.0137 26.0848Z" fill="#E53935"/>
</g>
<defs>
<clipPath id="clip0_2430_55269">
<rect width="40" height="40" fill="white"/>
</clipPath>
</defs>
</svg>
