<svg width="50" height="50" viewBox="0 0 50 50" fill="none" xmlns="http://www.w3.org/2000/svg">
<g id="Frame">
<g id="Group">
<path id="Vector" d="M25.002 31.2045C27.1587 30.4385 29.0729 29.1126 30.5483 27.3629C32.0237 25.6132 33.0073 23.5026 33.3981 21.2475C33.216 21.6654 32.916 22.0213 32.5348 22.2714C32.1537 22.5216 31.7079 22.6553 31.252 22.6561H28.127C26.8348 22.6561 25.7832 21.6045 25.7832 20.3123V19.5311H24.2207V20.3123C24.2207 21.6045 23.1691 22.6561 21.877 22.6561H18.752C18.296 22.6553 17.8502 22.5216 17.4691 22.2714C17.0879 22.0213 16.788 21.6654 16.6059 21.2475C16.9964 23.5027 17.9799 25.6134 19.4553 27.3632C20.9307 29.1129 22.8451 30.4387 25.002 31.2045ZM23.4395 24.9998C23.4395 25.8615 24.1402 26.5623 25.002 26.5623C25.8637 26.5623 26.5645 25.8615 26.5645 24.9998H28.127C28.127 26.7232 26.7254 28.1248 25.002 28.1248C23.2785 28.1248 21.877 26.7232 21.877 24.9998H23.4395ZM12.216 38.3897C10.3415 39.1511 8.71821 40.4232 7.53063 42.0612C6.34306 43.6993 5.63885 45.6377 5.49805 47.6561H11.7207V42.9686H13.2832V47.6561H21.0957V41.1381C21.0957 39.1209 20.4621 37.1381 19.3121 35.4873L12.216 38.3897ZM33.5957 18.7498V17.8771C33.5962 17.3852 33.4416 16.9055 33.154 16.5064C32.8663 16.1072 32.4602 15.8089 31.9934 15.6537L25.002 13.3232L18.0105 15.6537C17.5437 15.8089 17.1376 16.1072 16.8499 16.5064C16.5623 16.9055 16.4077 17.3852 16.4082 17.8771V18.7498C16.4082 17.4576 17.4598 16.4061 18.752 16.4061H21.877C22.8941 16.4061 23.7535 17.0615 24.077 17.9686H25.9277C26.0883 17.5129 26.386 17.1181 26.7799 16.8384C27.1738 16.5586 27.6446 16.4076 28.1277 16.4061H31.2527C31.874 16.4069 32.4696 16.6541 32.9088 17.0935C33.3481 17.5329 33.5951 18.1285 33.5957 18.7498Z" fill="#FFCA43"/>
<path id="Vector_2" d="M18.7518 17.9688C18.3214 17.9688 17.9706 18.3195 17.9706 18.75V20.3125C17.9706 20.743 18.3214 21.0938 18.7518 21.0938H21.8768C22.3073 21.0938 22.6581 20.743 22.6581 20.3125V18.75C22.6581 18.3195 22.3073 17.9688 21.8768 17.9688H18.7518ZM28.1268 17.9688C27.6964 17.9688 27.3456 18.3195 27.3456 18.75V20.3125C27.3456 20.743 27.6964 21.0938 28.1268 21.0938H31.2518C31.6823 21.0938 32.0331 20.743 32.0331 20.3125V18.75C32.0331 18.3195 31.6823 17.9688 31.2518 17.9688H28.1268Z" fill="#FFCA43"/>
<path id="Vector_3" d="M21.0956 31.4954V30.9344C19.167 29.6038 17.5905 27.8245 16.5018 25.7497C15.413 23.6749 14.8447 21.3666 14.8456 19.0235V17.8766C14.8448 17.0567 15.1023 16.2574 15.5817 15.5922C16.0611 14.927 16.7378 14.4298 17.5159 14.1711L25.0018 11.6766L32.4878 14.1719C33.2658 14.4306 33.9426 14.9278 34.422 15.593C34.9013 16.2582 35.1589 17.0575 35.1581 17.8774V19.0243C35.1588 21.3674 34.5904 23.6756 33.5017 25.7504C32.413 27.8252 30.8366 29.6045 28.9081 30.9352V31.4961C28.9081 31.5508 28.9167 31.6032 28.9198 31.6571C32.505 31.0094 35.612 29.6961 36.7206 29.1922V13.7157C36.7206 7.44535 31.619 2.34379 25.3487 2.34379C23.8547 2.3397 22.3747 2.63194 20.9944 3.20361C19.6141 3.77529 18.3609 4.61504 17.3073 5.67426L16.7932 6.18832L16.5612 6.23442C15.6378 6.42155 14.8073 6.92169 14.2101 7.65034C13.6128 8.37899 13.2854 9.29148 13.2831 10.2336V29.1914C14.3909 29.6954 17.4987 31.0094 21.0839 31.6563C21.087 31.6032 21.0956 31.55 21.0956 31.4954ZM35.1471 13.2438L33.5862 13.3188C33.5633 12.8383 33.4985 12.3607 33.3925 11.8914L34.9167 11.5469C35.0425 12.1024 35.1198 12.6735 35.1471 13.2438ZM25.3487 3.90629C29.2706 3.90629 32.8089 6.23832 34.3628 9.84692L32.9276 10.4649C32.27 8.93237 31.1634 7.63517 29.7536 6.74437C28.3438 5.85356 26.6971 5.411 25.0307 5.47504L24.9737 3.91332C25.0979 3.90864 25.2229 3.90629 25.3487 3.90629ZM22.5323 39.5118C22.6104 40.0493 22.6581 40.5922 22.6581 41.1383V47.6563H27.3456V41.1383C27.3456 40.5922 27.3932 40.0493 27.4714 39.5118C26.7182 39.7211 25.8854 39.8438 25.0018 39.8438C24.1182 39.8438 23.2854 39.7211 22.5323 39.5118ZM25.7831 46.0938H24.2206V44.5313H25.7831V46.0938ZM25.7831 42.9688H24.2206V41.4063H25.7831V42.9688ZM44.5057 47.6563C44.365 45.638 43.6608 43.6997 42.4732 42.0618C41.2856 40.4238 39.6623 39.1519 37.7878 38.3907L30.6909 35.4875C29.5353 37.1458 28.9134 39.1172 28.9081 41.1383V47.6563H36.7206V42.9688H38.2831V47.6563H44.5057ZM27.3737 31.8719C26.6906 32.2278 25.9803 32.5287 25.2495 32.7719L25.0018 32.8547L24.755 32.7727C24.0243 32.5292 23.314 32.2283 22.6307 31.8727C22.5751 32.4788 22.3777 33.0633 22.0544 33.5791C21.7311 34.0948 21.2911 34.5272 20.7698 34.8414C21.3492 35.7284 21.8033 36.6911 22.119 37.7024C22.88 38.0664 23.9034 38.2813 25.0018 38.2813C26.1003 38.2813 27.1237 38.0664 27.8854 37.7016C28.2013 36.6904 28.6554 35.7277 29.2346 34.8407C28.7132 34.5266 28.2731 34.0942 27.9498 33.5784C27.6265 33.0627 27.4291 32.4781 27.3737 31.8719Z" fill="#FFCA43"/>
</g>
</g>
</svg>
