<svg width="100" height="100" viewBox="0 0 100 100" fill="none" xmlns="http://www.w3.org/2000/svg">
<rect width="100" height="100" rx="50" fill="#DFEAFF"/>
<rect x="0.173077" y="0.173077" width="99.6538" height="99.6538" rx="49.8269" stroke="#4104EF" stroke-opacity="0.5" stroke-width="0.346154"/>
<path d="M51.5737 44.447C51.1785 44.7362 50.7535 44.9865 50.3041 45.1929V45.1966C49.5582 45.5223 48.1254 45.7032 47.2595 45.7032H44.215C40.8519 45.7032 38.1258 42.9771 38.1258 39.614V35.6195L53.9576 32.0403V39.614C53.9584 40.5486 53.7436 41.4708 53.3301 42.3088C52.9165 43.1469 52.3153 43.8784 51.5731 44.4464L51.5737 44.447ZM52.7398 48.7478C54.841 48.7445 56.8864 49.4236 58.5683 50.6829C55.8069 52.3294 53.9576 55.3466 53.9576 58.7949C53.9576 61.4406 55.0464 63.8319 56.8001 65.5453V71.8866H48.6637L52.0073 66.2444C52.1707 65.9685 52.2781 65.6631 52.3232 65.3457C52.3684 65.0282 52.3504 64.705 52.2703 64.3945L50.197 56.3592C50.1492 56.1737 50.0797 55.9944 49.9899 55.8252C50.2317 55.5091 50.3921 55.1383 50.457 54.7456L50.899 52.0962L51.377 48.7478H52.7398ZM59.2357 75V67.2692C60.5301 67.9054 61.9535 68.2352 63.3958 68.2331C64.9766 68.2331 66.4672 67.8446 67.7764 67.1572V75L65.1398 73.6817C64.6324 73.4282 64.073 73.2962 63.5058 73.2962C62.9385 73.2962 62.3791 73.4282 61.8717 73.6817L59.2357 75ZM44.215 25C40.8519 25 38.1258 27.7261 38.1258 31.0892V33.1826L53.9576 29.5291V28.6535C53.9576 27.6845 53.5727 26.7552 52.8875 26.0701C52.2024 25.3849 51.2731 25 50.3041 25H44.215ZM39.3436 48.7478C33.9626 48.7478 29.601 53.1094 29.601 58.4904V68.2331C29.601 69.2021 29.9859 70.1314 30.671 70.8165C31.3562 71.5017 32.2855 71.8866 33.2545 71.8866H43.9489L40.4196 66.2821C40.2428 66.0013 40.1253 65.6874 40.0742 65.3596C40.0231 65.0317 40.0395 64.6969 40.1224 64.3756L42.1909 56.3592C42.2189 56.2508 42.2542 56.1455 42.2957 56.0438C41.9422 55.6811 41.711 55.217 41.6344 54.7164L40.7167 48.7478H39.3436ZM48.0548 54.3455H44.042L43.1987 48.8653H48.9L48.492 51.7235L48.0548 54.3455Z" fill="#4104EF"/>
<path d="M47.8388 56.9683H44.5506L42.4815 64.9841L46.3152 71.0732L49.9127 65.0029L47.8388 56.9683ZM63.3966 51.7925C59.5294 51.7925 56.394 54.9278 56.394 58.795C56.394 62.6623 59.5294 65.7976 63.3966 65.7976C67.2638 65.7976 70.3991 62.6623 70.3991 58.795C70.3991 54.9278 67.2638 51.7925 63.3966 51.7925Z" fill="#4104EF"/>
</svg>
